<svg aria-labelledby="ecosystem-visual-title" fill="none" height="62" role="img" viewBox="0 0 152 62" width="152" xmlns="http://www.w3.org/2000/svg"><title id="ecosystem-visual-title">Three document icons. The first says TS, the second JSX, the third CSS.</title><path d="M11.25 3C9.178 3 7.5 4.68 7.5 6.75V41.25C7.5 43.32 9.18 45 11.25 45H36.75C38.82 45 40.5 43.32 40.5 41.25V25.5C40.5 23.5109 39.7098 21.6032 38.3033 20.1967C36.8968 18.7902 34.9891 18 33 18H29.25C28.2554 18 27.3016 17.6049 26.5983 16.9017C25.8951 16.1984 25.5 15.2446 25.5 14.25V10.5C25.5 8.51088 24.7098 6.60322 23.3033 5.1967C21.8968 3.79018 19.9891 3 18 3H11.25Z" fill="url(#paint0_linear_1389_8837)" fill-opacity="0.15"></path><path d="M8 6.75C8 4.95597 9.45432 3.5 11.25 3.5H18C19.8565 3.5 21.637 4.2375 22.9497 5.55025C24.2625 6.86301 25 8.64348 25 10.5V14.25C25 15.3772 25.4478 16.4582 26.2448 17.2552C27.0418 18.0522 28.1228 18.5 29.25 18.5H33C34.8565 18.5 36.637 19.2375 37.9497 20.5503C39.2625 21.863 40 23.6435 40 25.5V41.25C40 43.0439 38.5439 44.5 36.75 44.5H11.25C9.45614 44.5 8 43.0439 8 41.25V6.75Z" stroke="url(#paint1_linear_1389_8837)" stroke-opacity="0.15"></path><path d="M17.5603 28.6H23.6083V30.112H21.3763V37H19.7923V30.112H17.5603V28.6ZM29.252 31.168C29.252 30.832 29.12 30.54 28.856 30.292C28.6 30.044 28.236 29.92 27.764 29.92C27.364 29.92 27.048 30.004 26.816 30.172C26.584 30.332 26.468 30.552 26.468 30.832C26.468 30.976 26.496 31.108 26.552 31.228C26.608 31.34 26.704 31.444 26.84 31.54C26.984 31.628 27.168 31.708 27.392 31.78C27.624 31.852 27.916 31.92 28.268 31.984C29.148 32.144 29.82 32.412 30.284 32.788C30.748 33.164 30.98 33.72 30.98 34.456V34.6C30.98 34.992 30.908 35.348 30.764 35.668C30.628 35.98 30.428 36.248 30.164 36.472C29.9 36.696 29.58 36.868 29.204 36.988C28.828 37.108 28.404 37.168 27.932 37.168C27.38 37.168 26.892 37.092 26.468 36.94C26.052 36.78 25.704 36.564 25.424 36.292C25.144 36.012 24.932 35.688 24.788 35.32C24.644 34.944 24.572 34.536 24.572 34.096V33.736H26.156V34.024C26.156 34.528 26.3 34.932 26.588 35.236C26.884 35.532 27.34 35.68 27.956 35.68C28.436 35.68 28.792 35.576 29.024 35.368C29.256 35.16 29.372 34.912 29.372 34.624C29.372 34.488 29.348 34.36 29.3 34.24C29.252 34.112 29.168 34 29.048 33.904C28.928 33.8 28.764 33.708 28.556 33.628C28.348 33.548 28.084 33.48 27.764 33.424C27.34 33.352 26.952 33.26 26.6 33.148C26.248 33.028 25.94 32.872 25.676 32.68C25.42 32.488 25.22 32.248 25.076 31.96C24.932 31.672 24.86 31.32 24.86 30.904V30.832C24.86 30.488 24.928 30.172 25.064 29.884C25.208 29.588 25.404 29.332 25.652 29.116C25.908 28.9 26.212 28.732 26.564 28.612C26.924 28.492 27.324 28.432 27.764 28.432C28.26 28.432 28.7 28.504 29.084 28.648C29.468 28.784 29.788 28.972 30.044 29.212C30.308 29.452 30.504 29.728 30.632 30.04C30.768 30.352 30.836 30.68 30.836 31.024V31.456H29.252V31.168Z" fill="url(#paint2_linear_1389_8837)"></path><path d="M25.9419 3.63196C27.5949 5.53789 28.5034 7.97705 28.4999 10.5V14.25C28.4999 14.664 28.8359 15 29.2499 15H32.9999C35.5228 14.9965 37.962 15.9049 39.8679 17.558C38.988 14.2114 37.2349 11.1586 34.7881 8.71173C32.3413 6.26491 29.2885 4.51189 25.9419 3.63196V3.63196Z" fill="url(#paint3_linear_1389_8837)" fill-opacity="0.3"></path><path d="M27.2581 4.55688C29.9525 5.49915 32.4071 7.03777 34.4346 9.06529C36.4621 11.0928 38.0007 13.5473 38.943 16.2418C37.1798 15.1078 35.118 14.4971 32.9999 14.5C32.9997 14.5 32.9994 14.5 32.9992 14.5L27.2581 4.55688ZM27.2581 4.55688C28.3921 6.32011 29.0028 8.38203 28.9999 10.5003L27.2581 4.55688Z" stroke="url(#paint4_linear_1389_8837)" stroke-opacity="0.15"></path><path d="M63.25 3C61.178 3 59.5 4.68 59.5 6.75V41.25C59.5 43.32 61.18 45 63.25 45H88.75C90.82 45 92.5 43.32 92.5 41.25V25.5C92.5 23.5109 91.7098 21.6032 90.3033 20.1967C88.8968 18.7902 86.9891 18 85 18H81.25C80.2554 18 79.3016 17.6049 78.5983 16.9017C77.8951 16.1984 77.5 15.2446 77.5 14.25V10.5C77.5 8.51088 76.7098 6.60322 75.3033 5.1967C73.8968 3.79018 71.9891 3 70 3H63.25Z" fill="url(#paint5_linear_1389_8837)" fill-opacity="0.15"></path><path d="M60 6.75C60 4.95597 61.4543 3.5 63.25 3.5H70C71.8565 3.5 73.637 4.2375 74.9497 5.55025C76.2625 6.86301 77 8.64348 77 10.5V14.25C77 15.3772 77.4478 16.4582 78.2448 17.2552C79.0418 18.0522 80.1228 18.5 81.25 18.5H85C86.8565 18.5 88.637 19.2375 89.9497 20.5503C91.2625 21.863 92 23.6435 92 25.5V41.25C92 43.0439 90.5439 44.5 88.75 44.5H63.25C61.4561 44.5 60 43.0439 60 41.25V6.75Z" stroke="url(#paint6_linear_1389_8837)" stroke-opacity="0.15"></path><path d="M71.5025 34.48C71.5025 35.352 71.2665 36.02 70.7945 36.484C70.3225 36.94 69.6745 37.168 68.8505 37.168C68.4265 37.168 68.0425 37.112 67.6985 37C67.3545 36.88 67.0585 36.708 66.8105 36.484C66.5625 36.252 66.3705 35.972 66.2345 35.644C66.0985 35.308 66.0305 34.92 66.0305 34.48V33.688H67.6145V34.48C67.6145 34.856 67.7185 35.152 67.9265 35.368C68.1345 35.576 68.4265 35.68 68.8025 35.68C69.1545 35.68 69.4265 35.576 69.6185 35.368C69.8185 35.16 69.9185 34.864 69.9185 34.48V30.088H69.0545V28.6H72.2225V30.088H71.5025V34.48ZM77.6382 31.168C77.6382 30.832 77.5062 30.54 77.2422 30.292C76.9862 30.044 76.6222 29.92 76.1502 29.92C75.7502 29.92 75.4342 30.004 75.2022 30.172C74.9702 30.332 74.8542 30.552 74.8542 30.832C74.8542 30.976 74.8822 31.108 74.9382 31.228C74.9942 31.34 75.0902 31.444 75.2262 31.54C75.3702 31.628 75.5542 31.708 75.7782 31.78C76.0102 31.852 76.3022 31.92 76.6542 31.984C77.5342 32.144 78.2062 32.412 78.6702 32.788C79.1342 33.164 79.3662 33.72 79.3662 34.456V34.6C79.3662 34.992 79.2942 35.348 79.1502 35.668C79.0142 35.98 78.8142 36.248 78.5502 36.472C78.2862 36.696 77.9662 36.868 77.5902 36.988C77.2142 37.108 76.7902 37.168 76.3182 37.168C75.7662 37.168 75.2782 37.092 74.8542 36.94C74.4382 36.78 74.0902 36.564 73.8102 36.292C73.5302 36.012 73.3182 35.688 73.1742 35.32C73.0302 34.944 72.9582 34.536 72.9582 34.096V33.736H74.5422V34.024C74.5422 34.528 74.6862 34.932 74.9742 35.236C75.2702 35.532 75.7262 35.68 76.3422 35.68C76.8222 35.68 77.1782 35.576 77.4102 35.368C77.6422 35.16 77.7582 34.912 77.7582 34.624C77.7582 34.488 77.7342 34.36 77.6862 34.24C77.6382 34.112 77.5542 34 77.4342 33.904C77.3142 33.8 77.1502 33.708 76.9422 33.628C76.7342 33.548 76.4702 33.48 76.1502 33.424C75.7262 33.352 75.3382 33.26 74.9862 33.148C74.6342 33.028 74.3262 32.872 74.0622 32.68C73.8062 32.488 73.6062 32.248 73.4622 31.96C73.3182 31.672 73.2462 31.32 73.2462 30.904V30.832C73.2462 30.488 73.3142 30.172 73.4502 29.884C73.5942 29.588 73.7902 29.332 74.0382 29.116C74.2942 28.9 74.5982 28.732 74.9502 28.612C75.3102 28.492 75.7102 28.432 76.1502 28.432C76.6462 28.432 77.0862 28.504 77.4702 28.648C77.8542 28.784 78.1742 28.972 78.4302 29.212C78.6942 29.452 78.8902 29.728 79.0182 30.04C79.1542 30.352 79.2222 30.68 79.2222 31.024V31.456H77.6382V31.168ZM81.8658 28.6L83.2818 32.032H83.5698L84.9858 28.6H86.7018L84.9738 32.68V32.896L86.7018 37H84.9858L83.5698 33.544H83.2818L81.8658 37H80.1498L81.8778 32.896V32.68L80.1498 28.6H81.8658Z" fill="url(#paint7_linear_1389_8837)"></path><path d="M77.9419 3.63196C79.5949 5.53789 80.5034 7.97705 80.4999 10.5V14.25C80.4999 14.664 80.8359 15 81.2499 15H84.9999C87.5228 14.9965 89.962 15.9049 91.8679 17.558C90.988 14.2114 89.2349 11.1586 86.7881 8.71173C84.3413 6.26491 81.2885 4.51189 77.9419 3.63196V3.63196Z" fill="url(#paint8_linear_1389_8837)" fill-opacity="0.3"></path><path d="M79.2581 4.55688C81.9525 5.49915 84.4071 7.03777 86.4346 9.06529C88.4621 11.0928 90.0007 13.5473 90.943 16.2418C89.1798 15.1078 87.118 14.4971 84.9999 14.5C84.9997 14.5 84.9994 14.5 84.9992 14.5L79.2581 4.55688ZM79.2581 4.55688C80.3921 6.32011 81.0028 8.38203 80.9999 10.5003L79.2581 4.55688Z" stroke="url(#paint9_linear_1389_8837)" stroke-opacity="0.15"></path><path d="M115.25 3C113.178 3 111.5 4.68 111.5 6.75V41.25C111.5 43.32 113.18 45 115.25 45H140.75C142.82 45 144.5 43.32 144.5 41.25V25.5C144.5 23.5109 143.71 21.6032 142.303 20.1967C140.897 18.7902 138.989 18 137 18H133.25C132.255 18 131.302 17.6049 130.598 16.9017C129.895 16.1984 129.5 15.2446 129.5 14.25V10.5C129.5 8.51088 128.71 6.60322 127.303 5.1967C125.897 3.79018 123.989 3 122 3H115.25Z" fill="url(#paint10_linear_1389_8837)" fill-opacity="0.15"></path><path d="M112 6.75C112 4.95597 113.454 3.5 115.25 3.5H122C123.857 3.5 125.637 4.2375 126.95 5.55025C128.263 6.86301 129 8.64348 129 10.5V14.25C129 15.3772 129.448 16.4582 130.245 17.2552C131.042 18.0522 132.123 18.5 133.25 18.5H137C138.857 18.5 140.637 19.2375 141.95 20.5503C143.263 21.863 144 23.6435 144 25.5V41.25C144 43.0439 142.544 44.5 140.75 44.5H115.25C113.456 44.5 112 43.0439 112 41.25V6.75Z" stroke="url(#paint11_linear_1389_8837)" stroke-opacity="0.15"></path><path d="M120.995 35.728C121.299 35.728 121.547 35.684 121.739 35.596C121.939 35.5 122.091 35.376 122.195 35.224C122.307 35.064 122.383 34.884 122.423 34.684C122.463 34.476 122.483 34.264 122.483 34.048V33.832H124.067V34.048C124.067 35.048 123.803 35.82 123.275 36.364C122.755 36.9 121.995 37.168 120.995 37.168C120.035 37.168 119.275 36.876 118.715 36.292C118.155 35.708 117.875 34.856 117.875 33.736V31.864C117.875 31.328 117.947 30.848 118.091 30.424C118.235 29.992 118.443 29.632 118.715 29.344C118.987 29.048 119.315 28.824 119.699 28.672C120.083 28.512 120.515 28.432 120.995 28.432C121.491 28.432 121.931 28.504 122.315 28.648C122.699 28.792 123.019 29 123.275 29.272C123.539 29.544 123.735 29.872 123.863 30.256C123.999 30.64 124.067 31.072 124.067 31.552V31.768H122.483V31.552C122.483 31.352 122.459 31.152 122.411 30.952C122.363 30.752 122.283 30.572 122.171 30.412C122.059 30.252 121.907 30.124 121.715 30.028C121.523 29.924 121.283 29.872 120.995 29.872C120.731 29.872 120.503 29.924 120.311 30.028C120.119 30.124 119.959 30.26 119.831 30.436C119.703 30.604 119.607 30.804 119.543 31.036C119.487 31.26 119.459 31.496 119.459 31.744V33.856C119.459 34.128 119.487 34.38 119.543 34.612C119.599 34.836 119.687 35.032 119.807 35.2C119.927 35.368 120.083 35.5 120.275 35.596C120.475 35.684 120.715 35.728 120.995 35.728ZM129.638 31.168C129.638 30.832 129.506 30.54 129.242 30.292C128.986 30.044 128.622 29.92 128.15 29.92C127.75 29.92 127.434 30.004 127.202 30.172C126.97 30.332 126.854 30.552 126.854 30.832C126.854 30.976 126.882 31.108 126.938 31.228C126.994 31.34 127.09 31.444 127.226 31.54C127.37 31.628 127.554 31.708 127.778 31.78C128.01 31.852 128.302 31.92 128.654 31.984C129.534 32.144 130.206 32.412 130.67 32.788C131.134 33.164 131.366 33.72 131.366 34.456V34.6C131.366 34.992 131.294 35.348 131.15 35.668C131.014 35.98 130.814 36.248 130.55 36.472C130.286 36.696 129.966 36.868 129.59 36.988C129.214 37.108 128.79 37.168 128.318 37.168C127.766 37.168 127.278 37.092 126.854 36.94C126.438 36.78 126.09 36.564 125.81 36.292C125.53 36.012 125.318 35.688 125.174 35.32C125.03 34.944 124.958 34.536 124.958 34.096V33.736H126.542V34.024C126.542 34.528 126.686 34.932 126.974 35.236C127.27 35.532 127.726 35.68 128.342 35.68C128.822 35.68 129.178 35.576 129.41 35.368C129.642 35.16 129.758 34.912 129.758 34.624C129.758 34.488 129.734 34.36 129.686 34.24C129.638 34.112 129.554 34 129.434 33.904C129.314 33.8 129.15 33.708 128.942 33.628C128.734 33.548 128.47 33.48 128.15 33.424C127.726 33.352 127.338 33.26 126.986 33.148C126.634 33.028 126.326 32.872 126.062 32.68C125.806 32.488 125.606 32.248 125.462 31.96C125.318 31.672 125.246 31.32 125.246 30.904V30.832C125.246 30.488 125.314 30.172 125.45 29.884C125.594 29.588 125.79 29.332 126.038 29.116C126.294 28.9 126.598 28.732 126.95 28.612C127.31 28.492 127.71 28.432 128.15 28.432C128.646 28.432 129.086 28.504 129.47 28.648C129.854 28.784 130.174 28.972 130.43 29.212C130.694 29.452 130.89 29.728 131.018 30.04C131.154 30.352 131.222 30.68 131.222 31.024V31.456H129.638V31.168ZM136.866 31.168C136.866 30.832 136.734 30.54 136.47 30.292C136.214 30.044 135.85 29.92 135.378 29.92C134.978 29.92 134.662 30.004 134.43 30.172C134.198 30.332 134.082 30.552 134.082 30.832C134.082 30.976 134.11 31.108 134.166 31.228C134.222 31.34 134.318 31.444 134.454 31.54C134.598 31.628 134.782 31.708 135.006 31.78C135.238 31.852 135.53 31.92 135.882 31.984C136.762 32.144 137.434 32.412 137.898 32.788C138.362 33.164 138.594 33.72 138.594 34.456V34.6C138.594 34.992 138.522 35.348 138.378 35.668C138.242 35.98 138.042 36.248 137.778 36.472C137.514 36.696 137.194 36.868 136.818 36.988C136.442 37.108 136.018 37.168 135.546 37.168C134.994 37.168 134.506 37.092 134.082 36.94C133.666 36.78 133.318 36.564 133.038 36.292C132.758 36.012 132.546 35.688 132.402 35.32C132.258 34.944 132.186 34.536 132.186 34.096V33.736H133.77V34.024C133.77 34.528 133.914 34.932 134.202 35.236C134.498 35.532 134.954 35.68 135.57 35.68C136.05 35.68 136.406 35.576 136.638 35.368C136.87 35.16 136.986 34.912 136.986 34.624C136.986 34.488 136.962 34.36 136.914 34.24C136.866 34.112 136.782 34 136.662 33.904C136.542 33.8 136.378 33.708 136.17 33.628C135.962 33.548 135.698 33.48 135.378 33.424C134.954 33.352 134.566 33.26 134.214 33.148C133.862 33.028 133.554 32.872 133.29 32.68C133.034 32.488 132.834 32.248 132.69 31.96C132.546 31.672 132.474 31.32 132.474 30.904V30.832C132.474 30.488 132.542 30.172 132.678 29.884C132.822 29.588 133.018 29.332 133.266 29.116C133.522 28.9 133.826 28.732 134.178 28.612C134.538 28.492 134.938 28.432 135.378 28.432C135.874 28.432 136.314 28.504 136.698 28.648C137.082 28.784 137.402 28.972 137.658 29.212C137.922 29.452 138.118 29.728 138.246 30.04C138.382 30.352 138.45 30.68 138.45 31.024V31.456H136.866V31.168Z" fill="url(#paint12_linear_1389_8837)"></path><path d="M129.942 3.63196C131.595 5.53789 132.503 7.97705 132.5 10.5V14.25C132.5 14.664 132.836 15 133.25 15H137C139.523 14.9965 141.962 15.9049 143.868 17.558C142.988 14.2114 141.235 11.1586 138.788 8.71173C136.341 6.26491 133.288 4.51189 129.942 3.63196V3.63196Z" fill="url(#paint13_linear_1389_8837)" fill-opacity="0.3"></path><path d="M131.258 4.55688C133.953 5.49915 136.407 7.03777 138.435 9.06529C140.462 11.0928 142.001 13.5473 142.943 16.2418C141.18 15.1078 139.118 14.4971 137 14.5C137 14.5 136.999 14.5 136.999 14.5L131.258 4.55688ZM131.258 4.55688C132.392 6.32011 133.003 8.38203 133 10.5003L131.258 4.55688Z" stroke="url(#paint14_linear_1389_8837)" stroke-opacity="0.15"></path><defs><linearGradient gradientUnits="userSpaceOnUse" id="paint0_linear_1389_8837" x1="39.9998" x2="7.99946" y1="46.0001" y2="4.0005"><stop stop-opacity="0.15"></stop><stop offset="1" stop-opacity="0.4"></stop></linearGradient><linearGradient gradientUnits="userSpaceOnUse" id="paint1_linear_1389_8837" x1="41" x2="31.5" y1="47.5" y2="22.5"><stop></stop><stop offset="1" stop-opacity="0"></stop></linearGradient><linearGradient gradientUnits="userSpaceOnUse" id="paint2_linear_1389_8837" x1="11" x2="37.0173" y1="33.8" y2="36.9554"><stop stop-color="#1E90FF"></stop><stop offset="0.494792" stop-color="#A548DA"></stop><stop offset="1" stop-color="#FF1E56"></stop></linearGradient><linearGradient gradientUnits="userSpaceOnUse" id="paint3_linear_1389_8837" x1="40" x2="25.9999" y1="16" y2="4.00006"><stop stop-opacity="0.5"></stop><stop offset="1" stop-opacity="0"></stop></linearGradient><linearGradient gradientUnits="userSpaceOnUse" id="paint4_linear_1389_8837" x1="44.0005" x2="33.0105" y1="8.99994" y2="8.94303"><stop></stop><stop offset="1" stop-opacity="0"></stop></linearGradient><linearGradient gradientUnits="userSpaceOnUse" id="paint5_linear_1389_8837" x1="91.9998" x2="59.9995" y1="46.0001" y2="4.0005"><stop stop-opacity="0.15"></stop><stop offset="1" stop-opacity="0.4"></stop></linearGradient><linearGradient gradientUnits="userSpaceOnUse" id="paint6_linear_1389_8837" x1="93" x2="83.5" y1="47.5" y2="22.5"><stop></stop><stop offset="1" stop-opacity="0"></stop></linearGradient><linearGradient gradientUnits="userSpaceOnUse" id="paint7_linear_1389_8837" x1="63" x2="89.0173" y1="33.8" y2="36.9554"><stop stop-color="#1E90FF"></stop><stop offset="0.494792" stop-color="#A548DA"></stop><stop offset="1" stop-color="#FF1E56"></stop></linearGradient><linearGradient gradientUnits="userSpaceOnUse" id="paint8_linear_1389_8837" x1="92" x2="77.9999" y1="16" y2="4.00006"><stop stop-opacity="0.5"></stop><stop offset="1" stop-opacity="0"></stop></linearGradient><linearGradient gradientUnits="userSpaceOnUse" id="paint9_linear_1389_8837" x1="96.0005" x2="85.0105" y1="8.99994" y2="8.94303"><stop></stop><stop offset="1" stop-opacity="0"></stop></linearGradient><linearGradient gradientUnits="userSpaceOnUse" id="paint10_linear_1389_8837" x1="144" x2="111.999" y1="46.0001" y2="4.0005"><stop stop-opacity="0.15"></stop><stop offset="1" stop-opacity="0.4"></stop></linearGradient><linearGradient gradientUnits="userSpaceOnUse" id="paint11_linear_1389_8837" x1="145" x2="135.5" y1="47.5" y2="22.5"><stop></stop><stop offset="1" stop-opacity="0"></stop></linearGradient><linearGradient gradientUnits="userSpaceOnUse" id="paint12_linear_1389_8837" x1="115" x2="141.017" y1="33.8" y2="36.9554"><stop stop-color="#1E90FF"></stop><stop offset="0.494792" stop-color="#A548DA"></stop><stop offset="1" stop-color="#FF1E56"></stop></linearGradient><linearGradient gradientUnits="userSpaceOnUse" id="paint13_linear_1389_8837" x1="144" x2="130" y1="16" y2="4.00006"><stop stop-opacity="0.5"></stop><stop offset="1" stop-opacity="0"></stop></linearGradient><linearGradient gradientUnits="userSpaceOnUse" id="paint14_linear_1389_8837" x1="148" x2="137.011" y1="8.99994" y2="8.94303"><stop></stop><stop offset="1" stop-opacity="0"></stop></linearGradient></defs></svg>