<svg aria-labelledby="monitoring-title" fill="none" height="196" role="img" viewBox="0 0 348 196" width="348" xmlns="http://www.w3.org/2000/svg"><title id="monitoring-title">A line chart with three lines that move wildly over each other.</title><mask height="192" id="mask0_1389_9134" maskUnits="userSpaceOnUse" width="308" x="20" y="4"><ellipse cx="174" cy="100" fill="url(#paint0_radial_1389_9134)" rx="154" ry="96"></ellipse></mask><g mask="url(#mask0_1389_9134)"><path d="M-242.5 136.686L-234.744 126.523L-227.341 118.518C-227.11 118.268 -226.819 118.081 -226.496 117.975L-219.502 115.679C-219.324 115.621 -219.138 115.588 -218.95 115.581L-211.998 115.333C-211.657 115.321 -211.324 115.221 -211.032 115.044L-204.321 110.97C-203.933 110.734 -203.637 110.374 -203.481 109.948L-195.966 89.4481L-188.346 72.1058C-188.256 71.901 -188.133 71.7127 -187.98 71.5488L-180.865 63.8922C-180.597 63.6043 -180.251 63.4016 -179.869 63.3095L-173.918 61.8739C-173.172 61.6941 -172.39 61.9563 -171.903 62.5488L-164.943 71.0235L-158.908 76.77C-158.009 77.6255 -156.557 77.465 -155.867 76.4339L-149.708 67.231C-149.527 66.9602 -149.282 66.7378 -148.995 66.5831L-142.496 63.0766C-141.976 62.7963 -141.359 62.7598 -140.811 62.977L-134.492 65.4764C-134.12 65.6238 -133.8 65.8795 -133.575 66.2106L-126.165 77.0935L-118.752 91.8751C-118.531 92.3154 -118.156 92.6588 -117.698 92.8394L-110.654 95.614L-102.898 97.7827L-95.3323 100.748C-95.206 100.798 -95.085 100.86 -94.9713 100.934L-87.5873 105.74C-87.454 105.826 -87.3316 105.929 -87.2226 106.044L-79.631 114.101L-72.0597 124.114C-71.9375 124.276 -71.7915 124.418 -71.6266 124.535L-64.9058 129.335C-64.4092 129.689 -63.7778 129.798 -63.1913 129.629L-56.8344 127.803C-56.5254 127.714 -56.2423 127.552 -56.0092 127.331L-48.8418 120.522C-48.6872 120.375 -48.51 120.254 -48.3171 120.163L-41.5171 116.958C-41.0882 116.756 -40.6014 116.713 -40.1436 116.836L-33.7559 118.559C-33.3288 118.674 -32.8754 118.645 -32.4669 118.475L-25.7438 115.678C-25.4786 115.567 -25.2403 115.401 -25.0451 115.191L-17.8987 107.48C-17.6927 107.257 -17.5399 106.991 -17.4519 106.701L-9.91529 81.8897C-9.85875 81.7036 -9.77536 81.5267 -9.66775 81.3646L-2.23186 70.1666C-2.12738 70.0092 -2.00115 69.8675 -1.85691 69.7455L5.36783 63.638C5.57467 63.4632 5.81486 63.3321 6.07385 63.2529L12.2368 61.3672C12.9706 61.1427 13.7683 61.3579 14.2896 61.9211L21.1926 69.3781L27.2929 77.0865C28.1205 78.1323 29.7204 78.0905 30.4922 77.0029L36.5867 68.4153C36.6647 68.3054 36.7536 68.2037 36.852 68.1117L43.531 61.8691C44.0977 61.3395 44.9196 61.1852 45.6397 61.4734L51.6215 63.8671C52.0078 64.0217 52.3362 64.2928 52.561 64.6428L59.971 76.1741L67.5664 86.8269C67.6727 86.976 67.799 87.1098 67.9417 87.2245L75.2422 93.0936C75.4013 93.2216 75.5791 93.3244 75.7693 93.3985L83.238 96.3082L90.592 98.0899C90.857 98.1541 91.106 98.2718 91.3238 98.4358L98.5575 103.881C98.6849 103.977 98.8004 104.087 98.9015 104.211L106.505 113.486L113.981 124.656C114.165 124.93 114.413 125.155 114.705 125.31L121.857 129.111C121.963 129.167 122.074 129.213 122.188 129.25L128.412 131.236C129.225 131.495 130.114 131.21 130.624 130.524L137.434 121.37C137.496 121.286 137.565 121.207 137.64 121.133L144.515 114.412C144.995 113.943 145.678 113.746 146.334 113.887L152.707 115.259C152.927 115.306 153.153 115.316 153.376 115.288L160.502 114.398C160.696 114.373 160.885 114.321 161.064 114.242L167.741 111.284C168.257 111.056 168.652 110.621 168.829 110.087L176.236 87.8135C176.282 87.673 176.345 87.5381 176.421 87.4113L183.851 75.0979C183.99 74.8674 184.174 74.6674 184.392 74.5097L191.46 69.4058C191.695 69.2358 191.965 69.1191 192.25 69.0638L198.397 67.872C199.121 67.7317 199.863 68.001 200.329 68.5727L206.587 76.2594C207.045 76.8216 207.771 77.0921 208.485 76.9663L214.61 75.8878C214.922 75.833 215.216 75.705 215.468 75.5146L222.84 69.9519L230.27 65.4431C230.485 65.3124 230.723 65.2235 230.971 65.1812L236.943 64.1641C237.785 64.0206 238.626 64.4283 239.035 65.1788L246.107 78.1594L253.65 89.6781C253.791 89.8921 253.971 90.0773 254.18 90.2235L261.482 95.3094C261.573 95.3725 261.668 95.4279 261.768 95.4752L269.046 98.9291C269.263 99.032 269.496 99.095 269.736 99.1152L276.924 99.7215C277.061 99.733 277.196 99.7586 277.327 99.7979L284.25 101.863C284.662 101.986 285.024 102.239 285.282 102.584L292.641 112.455L300.397 121.992L307.651 128.704C307.976 129.005 308.392 129.189 308.833 129.229L315.183 129.79C315.651 129.832 316.119 129.707 316.505 129.437L323.487 124.559C323.604 124.477 323.713 124.383 323.81 124.278L330.884 116.631C331.228 116.259 331.7 116.032 332.205 115.995L339.02 115.493C339.123 115.485 339.227 115.486 339.33 115.494L346.232 116.057C346.684 116.094 347.136 115.975 347.512 115.721L354.13 111.259C354.491 111.016 354.763 110.662 354.904 110.25L362.388 88.4514C362.424 88.3475 362.468 88.2467 362.52 88.15L369.865 74.5607C370.08 74.1622 370.425 73.8486 370.841 73.6712L377.953 70.6457L384.305 67.8123C385.133 67.4429 386.105 67.6767 386.675 68.3819L393.155 76.4018C393.358 76.6537 393.62 76.8525 393.917 76.9809L400.223 79.7045C400.845 79.9731 401.561 79.9086 402.124 79.5332L408.791 75.095C408.914 75.0131 409.027 74.9179 409.129 74.8111L416.028 67.5844C416.47 67.121 417.107 66.8975 417.742 66.9834L423.717 67.791C424.213 67.858 424.665 68.1079 424.985 68.4915L432.243 77.1879L439.865 88.9962C439.954 89.1332 440.059 89.259 440.178 89.3706L447.387 96.1291C447.628 96.3552 447.922 96.518 448.241 96.603L455.226 98.4589C455.414 98.509 455.594 98.5863 455.76 98.6885L463.136 103.227C463.222 103.28 463.312 103.327 463.405 103.366L470.47 106.353C470.829 106.505 471.137 106.759 471.354 107.084L478.578 117.901C478.71 118.098 478.875 118.27 479.067 118.409L486.533 123.823L493.855 130.155C494.138 130.4 494.484 130.56 494.854 130.618L501.032 131.585C501.667 131.684 502.312 131.472 502.764 131.015L509.8 123.895L516.668 117.795C517.215 117.309 517.984 117.161 518.673 117.408L524.909 119.652C525.174 119.747 525.456 119.785 525.737 119.764L532.596 119.247C532.906 119.223 533.205 119.128 533.471 118.969L540.291 114.897C540.637 114.69 540.913 114.384 541.082 114.018L548.578 97.7934L556.16 83.8572C556.275 83.6467 556.426 83.4586 556.607 83.3017L563.455 77.367C563.861 77.0152 564.391 76.8415 564.926 76.8849L570.708 77.3535C571.413 77.4106 572.035 77.8353 572.345 78.4705L579.159 92.4486C579.437 93.0181 579.968 93.4224 580.591 93.5384L586.218 94.5864C586.922 94.7175 587.643 94.4622 588.107 93.9169L594.964 85.8656C595.062 85.75 595.174 85.6459 595.296 85.5555L602.137 80.4846C602.601 80.1407 603.191 80.0142 603.755 80.1375L610.028 81.5085C610.416 81.5933 610.77 81.7917 611.045 82.0785L618.276 89.6231C618.345 89.6944 618.408 89.7706 618.465 89.8512L625.557 99.8655C625.92 100.379 626.505 100.692 627.135 100.709L633.356 100.878C633.706 100.887 634.047 100.988 634.346 101.171L641.646 105.64L649.232 111.186C649.345 111.269 649.449 111.363 649.542 111.467L657.034 119.841C657.116 119.932 657.206 120.016 657.303 120.091L664.913 125.959L672.513 131.137C672.617 131.207 672.713 131.287 672.801 131.376L680.424 139L687.611 145.186C687.978 145.501 688.446 145.673 688.93 145.67L695.54 145.624C695.801 145.622 696.059 145.569 696.3 145.468L703.388 142.495C703.589 142.411 703.802 142.36 704.019 142.345L711.447 141.814L719.022 141.165C719.142 141.155 719.261 141.134 719.377 141.102L726.958 139.037L734.37 137.34C734.597 137.288 734.814 137.196 735.01 137.069L742.47 132.238L749.982 128.36C750.144 128.277 750.315 128.216 750.493 128.179L757.666 126.691C757.875 126.648 758.089 126.638 758.3 126.662L765.737 127.514L773.338 127.723C773.441 127.726 773.543 127.721 773.645 127.708L781.068 126.766C781.188 126.751 781.306 126.725 781.421 126.688L788.847 124.333C788.951 124.3 789.053 124.258 789.15 124.208L796.759 120.33L803.38 117.684C804.077 117.406 804.871 117.54 805.436 118.033L811.71 123.499C812.072 123.814 812.534 123.989 813.013 123.991L819.393 124.026C819.805 124.028 820.206 124.158 820.542 124.397L827.263 129.182C827.601 129.422 828.005 129.552 828.419 129.552L835.052 129.565C835.371 129.566 835.685 129.643 835.968 129.789L843.293 133.582L850.661 138.693C850.916 138.87 851.209 138.985 851.517 139.029L858.212 139.989C858.599 140.045 858.96 140.212 859.253 140.471L866.005 146.441C866.363 146.757 866.823 146.935 867.301 146.942L874.316 147.045L881.556 147.809C881.894 147.845 882.236 147.794 882.548 147.661L889.827 144.567L897.356 142.424C897.507 142.381 897.662 142.356 897.819 142.349L905.339 142.03L913.094 140.798L920.531 138.542C920.742 138.478 920.941 138.38 921.12 138.251L928.263 133.102C928.489 132.939 928.746 132.826 929.018 132.768L936.22 131.241C936.314 131.221 936.406 131.195 936.497 131.162L943.624 128.537C943.947 128.418 944.296 128.385 944.636 128.44L951.187 129.505C951.631 129.578 952.086 129.498 952.48 129.28L959.148 125.575C959.462 125.4 959.818 125.313 960.177 125.324L966.956 125.52C967.238 125.528 967.519 125.477 967.779 125.369L975.14 122.318L982.568 118.682C982.784 118.577 983.018 118.511 983.258 118.488L990.309 117.816C990.535 117.794 990.764 117.811 990.984 117.867L998.195 119.67C998.336 119.705 998.472 119.756 998.602 119.82L1005.76 123.386C1006.02 123.518 1006.32 123.59 1006.61 123.596L1013.28 123.723C1013.7 123.731 1014.1 123.867 1014.43 124.112L1021.24 129.129C1021.53 129.336 1021.86 129.466 1022.2 129.505L1028.99 130.277C1029.28 130.31 1029.56 130.405 1029.8 130.555L1037.18 135.038L1044.94 138.96L1051.82 141.611C1052.37 141.826 1053 141.78 1053.52 141.487L1060.13 137.762C1060.34 137.641 1060.53 137.481 1060.69 137.29L1068.21 128.148L1075.04 118.334C1075.58 117.559 1076.59 117.267 1077.46 117.633L1082.94 119.947C1083.44 120.156 1084 120.156 1084.49 119.948L1091.47 117.023L1098.59 113.012C1099 112.778 1099.32 112.403 1099.48 111.955L1106.99 91.3838L1114.48 73.248C1114.65 72.8301 1114.96 72.4829 1115.35 72.2633L1121.71 68.727C1122.21 68.45 1122.81 68.3989 1123.34 68.5863L1129.77 70.8256C1130.09 70.935 1130.37 71.1209 1130.59 71.3665L1137.85 79.3177C1137.95 79.435 1138.08 79.5391 1138.21 79.6279L1144.39 83.7962C1145.18 84.335 1146.25 84.2277 1146.93 83.5409L1153.52 76.8437L1161.09 68.0318C1161.21 67.8855 1161.36 67.7582 1161.52 67.6537L1167.49 63.8058C1168.36 63.2432 1169.52 63.442 1170.15 64.2634L1176.64 72.6489C1176.74 72.777 1176.82 72.9168 1176.89 73.065L1184.31 89.8856C1184.46 90.2362 1184.71 90.5349 1185.03 90.7464L1191.99 95.3511C1192.19 95.4851 1192.42 95.5811 1192.66 95.6344L1200.05 97.2977L1207.52 100.09C1207.71 100.163 1207.92 100.205 1208.12 100.215L1214.4 100.507C1215.12 100.541 1215.77 100.961 1216.09 101.607L1223.16 115.67C1223.27 115.878 1223.41 116.065 1223.58 116.225L1231.08 123.317L1238.43 129.616C1238.69 129.842 1239.01 129.996 1239.35 130.061L1245.57 131.252C1246.21 131.374 1246.87 131.179 1247.33 130.727L1254.34 123.961L1261.64 116.78C1261.94 116.487 1262.32 116.295 1262.73 116.23L1269.85 115.105L1277.61 113.029L1284.44 110.759C1285.03 110.566 1285.49 110.116 1285.7 109.538L1293.12 88.9036L1300.66 72.9822C1300.8 72.6868 1301.01 72.4302 1301.28 72.2349L1308.03 67.1998C1308.42 66.911 1308.9 66.7722 1309.38 66.8092L1315.65 67.2898C1316.13 67.3265 1316.58 67.5341 1316.91 67.8747L1323.88 74.8916C1324.06 75.0668 1324.26 75.2083 1324.49 75.3088L1330.64 78.0559C1331.4 78.3938 1332.29 78.2293 1332.87 77.6424L1339.66 70.8465L1346.87 62.4603C1347.22 62.0551 1347.71 61.8062 1348.24 61.7691L1353.95 61.3718C1354.7 61.3195 1355.41 61.6921 1355.8 62.3363L1362.92 74.1851L1370.68 85.5433L1378.16 94.0313C1378.34 94.2391 1378.56 94.4067 1378.82 94.5233L1386.19 97.9457L1393.95 101.999L1401.33 105.555C1401.57 105.674 1401.79 105.843 1401.97 106.051L1409.46 114.732L1416.87 124.433C1417.09 124.725 1417.39 124.95 1417.74 125.083L1424.97 127.886L1431.71 129.576C1432.34 129.736 1433.02 129.573 1433.51 129.141L1440.48 123.035L1447.49 117.048C1447.96 116.649 1448.59 116.487 1449.19 116.61L1455.55 117.905C1455.84 117.965 1456.14 117.958 1456.43 117.886L1463.56 116.116C1463.68 116.085 1463.81 116.042 1463.92 115.988L1470.79 112.787C1471.25 112.573 1471.61 112.192 1471.8 111.722L1479.26 93.1906L1486.87 79.6601C1486.97 79.4953 1487.08 79.3446 1487.22 79.2123L1494.54 72.0396C1494.69 71.8905 1494.87 71.7666 1495.06 71.6728L1501.13 68.6933C1501.95 68.2911 1502.94 68.4953 1503.53 69.1895L1509.88 76.6157C1510.14 76.9212 1510.49 77.1409 1510.88 77.2463L1517.05 78.9242C1517.67 79.0927 1518.33 78.9531 1518.83 78.549L1525.79 72.9169L1532.91 68.2286C1533.32 67.9594 1533.82 67.8495 1534.3 67.9198L1540.45 68.812C1540.99 68.891 1541.48 69.1911 1541.8 69.6415L1549.06 79.9742L1556.51 92.4078C1556.71 92.74 1557 93.0072 1557.35 93.1771L1564.42 96.631C1564.52 96.6783 1564.62 96.7177 1564.73 96.7488L1572.08 98.9628C1572.24 99.0123 1572.4 99.0827 1572.55 99.1724L1579.88 103.661C1580.01 103.745 1580.16 103.812 1580.31 103.861L1587.34 106.106C1587.67 106.21 1587.96 106.396 1588.19 106.647L1595.59 114.572L1603.35 124.104L1610.81 131.776C1611.01 131.973 1611.24 132.129 1611.49 132.233L1617.58 134.719C1618.35 135.035 1619.24 134.837 1619.8 134.224L1626.62 126.844L1633.6 119.713C1634.08 119.222 1634.78 119.012 1635.45 119.157L1641.95 120.563C1642.07 120.59 1642.18 120.627 1642.3 120.675L1648.85 123.43C1649.49 123.7 1650.23 123.616 1650.79 123.209L1657.15 118.622C1657.47 118.394 1657.71 118.079 1657.85 117.716L1665.39 98.048L1672.86 84.262C1673.05 83.9189 1673.33 83.6377 1673.68 83.4531L1680.77 79.6431C1680.86 79.5939 1680.95 79.5519 1681.05 79.5175L1687.32 77.3222C1688.12 77.0401 1689.02 77.2994 1689.55 77.968L1695.96 86.0713C1696.26 86.4417 1696.67 86.6963 1697.13 86.79L1703.12 88.0018C1703.78 88.1344 1704.46 87.9308 1704.93 87.459L1711.93 80.4941L1719.17 72.3563C1719.5 71.9863 1719.96 71.7517 1720.45 71.6979L1726.28 71.0603C1727 70.9822 1727.7 71.294 1728.12 71.877L1735.19 81.6662L1742.8 94.4444C1742.9 94.6105 1743.02 94.7614 1743.16 94.8924L1750.47 101.618C1750.63 101.765 1750.81 101.884 1751 101.973L1758.46 105.31L1766.22 107.856L1773.47 110.132C1773.8 110.236 1774.1 110.422 1774.33 110.675L1781.73 118.587L1789.48 127.173L1796.65 133.576C1797.03 133.914 1797.52 134.095 1798.03 134.084L1804 133.953C1804.63 133.939 1805.21 133.629 1805.58 133.118L1812.29 123.749C1812.58 123.332 1813.03 123.045 1813.54 122.949L1820.36 121.639C1820.46 121.62 1820.56 121.609 1820.65 121.605L1827.92 121.3C1828.15 121.29 1828.37 121.32 1828.59 121.388L1835.07 123.401C1835.67 123.586 1836.32 123.482 1836.83 123.121L1843.38 118.458C1843.64 118.275 1843.85 118.034 1844 117.754L1851.53 103.341L1859.29 89.2382" stroke="#3291FF" stroke-width="1.5"></path><path d="M-701 44.7544L-695.595 75.7373C-695.037 78.9375 -690.5 79.0914 -689.726 75.9364L-685.27 57.7715L-680.693 38.4057C-679.946 35.2452 -675.41 35.3596 -674.823 38.5537L-669.601 66.9773C-669.561 67.1976 -669.496 67.4127 -669.408 67.6186L-662.559 83.5755C-662.035 84.7956 -660.771 85.5264 -659.453 85.3718L-655.57 84.9167C-654.485 84.7895 -653.555 84.082 -653.142 83.07L-645.946 65.4247L-638.145 38.254C-638.102 38.1069 -638.049 37.9633 -637.985 37.8243L-631.536 23.8592C-630.818 22.3031 -628.944 21.6642 -627.424 22.4574L-623.575 24.4671C-622.798 24.8725 -622.238 25.5969 -622.04 26.4503L-614.705 58.1524C-614.563 58.767 -614.231 59.3211 -613.755 59.736L-606.912 65.7107C-606.719 65.8791 -606.549 66.0714 -606.405 66.283L-599.155 76.9373C-598.893 77.3227 -598.545 77.6416 -598.138 77.8689L-592.442 81.0498C-591.486 81.5838 -590.315 81.5544 -589.387 80.973L-586.299 79.0386C-584.64 77.9995 -582.446 78.8016 -581.849 80.6657L-575.162 101.54L-567.625 118.984C-567.411 119.481 -567.066 119.91 -566.627 120.227L-559.612 125.287C-559.493 125.373 -559.367 125.451 -559.235 125.519L-552.639 128.93C-551.951 129.285 -551.428 129.893 -551.178 130.625L-546.254 145.034C-545.362 147.645 -541.717 147.769 -540.649 145.225L-535.838 133.759L-527.973 113.558L-523.228 95.3813C-522.434 92.3385 -518.088 92.4127 -517.398 95.481L-514.715 107.416C-514.041 110.415 -509.828 110.58 -508.922 107.642L-504.615 93.6806C-504.46 93.179 -504.176 92.7268 -503.792 92.3691L-499.821 88.673C-498.251 87.211 -495.698 87.8226 -494.96 89.8376L-492.155 97.5003C-491.126 100.311 -487.068 100.047 -486.411 97.1272L-483.034 82.1069C-482.376 79.1824 -478.309 78.9241 -477.286 81.7419L-474.348 89.8428C-473.647 91.7753 -471.254 92.4462 -469.65 91.1599L-465.054 87.4728L-457.773 79.9001C-457.391 79.5027 -457.126 79.0077 -457.007 78.4694L-449.441 44.2974C-449.364 43.9503 -449.226 43.6195 -449.033 43.3207L-444.376 36.0953C-443.103 34.12 -440.156 34.3092 -439.146 36.431L-435.284 44.5428C-434.433 46.3294 -432.116 46.8177 -430.617 45.5263L-429.272 44.3677C-427.616 42.941 -425.039 43.7079 -424.432 45.808L-417.97 68.1749C-417.9 68.4159 -417.801 68.6473 -417.673 68.8636L-410.358 81.2961C-410.123 81.6962 -409.798 82.0363 -409.408 82.2894L-402.873 86.5407C-402.391 86.8542 -402.01 87.2995 -401.774 87.8237L-394.27 104.486L-386.542 117.828C-386.451 117.985 -386.375 118.149 -386.314 118.32L-378.663 139.676C-378.582 139.903 -378.473 140.12 -378.34 140.321L-371.337 150.89C-370.912 151.53 -370.258 151.984 -369.51 152.156L-364.528 153.304C-363.468 153.548 -362.623 154.348 -362.32 155.393L-357.756 171.15C-356.926 174.016 -352.874 174.044 -352.005 171.189L-347.081 155.014L-342.264 143.642C-341.192 141.111 -337.563 141.234 -336.666 143.833L-331.96 157.464C-331.587 158.543 -330.634 159.318 -329.502 159.461L-325.426 159.979C-324.247 160.128 -323.091 159.568 -322.478 158.55L-316.245 148.199C-315.845 147.535 -315.204 147.052 -314.456 146.85L-307.757 145.044L-300.332 142.776C-300.04 142.687 -299.737 142.643 -299.431 142.646L-293.679 142.693C-292.651 142.702 -291.689 142.183 -291.132 141.318L-285.83 133.089C-284.916 131.67 -283.012 131.284 -281.618 132.235L-277.094 135.321C-276.576 135.675 -275.96 135.857 -275.333 135.842L-270.185 135.721C-269.102 135.696 -268.117 135.089 -267.608 134.134L-261.603 122.871C-260.987 121.716 -259.692 121.093 -258.405 121.334L-253.12 122.321C-252.843 122.372 -252.575 122.463 -252.324 122.589L-244.838 126.349L-237.71 130.507C-237.228 130.789 -236.678 130.93 -236.12 130.915L-230.442 130.767C-229.593 130.745 -228.774 131.084 -228.189 131.699L-221.951 138.262C-221.492 138.745 -220.886 139.061 -220.228 139.161L-214.275 140.067C-213.69 140.156 -213.145 140.416 -212.708 140.814L-205.514 147.355L-197.976 152.848C-197.759 153.007 -197.564 153.193 -197.396 153.404L-190.049 162.627C-189.873 162.848 -189.729 163.092 -189.622 163.353L-182.294 181.133C-182.05 181.723 -181.625 182.22 -181.079 182.552L-174.885 186.321C-174.345 186.65 -173.922 187.141 -173.678 187.725L-168.742 199.503C-167.746 201.88 -164.416 201.978 -163.282 199.664L-158.433 189.773C-158.361 189.625 -158.301 189.472 -158.253 189.314L-153.003 171.795C-152.18 169.047 -148.339 168.912 -147.324 171.595L-143.558 181.548C-143.011 182.992 -141.458 183.786 -139.967 183.382L-134.73 181.963L-126.865 178.836L-119 174.91L-111.135 169.65L-104.282 166.29C-103.63 165.971 -102.884 165.899 -102.183 166.087L-96.1414 167.71C-95.6584 167.84 -95.1507 167.847 -94.6643 167.731L-88.5508 166.267C-87.8964 166.11 -87.3137 165.738 -86.8963 165.21L-80.5648 157.204C-80.0025 156.493 -79.149 156.074 -78.2427 156.065L-72.9181 156.01C-72.2035 156.002 -71.5149 155.74 -70.9764 155.27L-64.1599 149.32C-64.0176 149.196 -63.864 149.086 -63.701 148.991L-58.0386 145.681C-56.8804 145.004 -55.4135 145.178 -54.4462 146.108L-48.7205 151.609C-48.3888 151.928 -47.9883 152.166 -47.5499 152.305L-40.5604 154.524C-40.4212 154.568 -40.2855 154.623 -40.1542 154.687L-33.7037 157.83C-32.9298 158.207 -32.0312 158.233 -31.2364 157.902L-26.4478 155.908C-25.34 155.447 -24.0639 155.69 -23.2034 156.527L-18.604 160.998C-17.5416 162.031 -15.8842 162.133 -14.7027 161.239L-11.8195 159.058C-10.3067 157.913 -8.12464 158.442 -7.3043 160.153L-1.35576 172.556C-1.14004 173.006 -0.815557 173.395 -0.411685 173.687L5.28803 177.82C6.23318 178.505 7.49002 178.58 8.5097 178.011L14.1511 174.866C14.5148 174.664 14.9168 174.539 15.3314 174.5L20.9204 173.975C21.9457 173.879 22.8499 173.263 23.3156 172.345L30.2124 158.743C30.3581 158.456 30.4566 158.147 30.504 157.828L35.4326 124.706C35.9376 121.313 40.8222 121.287 41.3625 124.675L43.5335 138.287C44.0604 141.591 48.7812 141.683 49.4377 138.403L53.8316 116.452C53.9584 115.818 54.2867 115.242 54.7675 114.81L61.2484 108.983C61.6688 108.605 61.9738 108.116 62.1284 107.572L69.6754 81.0181C69.7295 80.8279 69.8022 80.6435 69.8926 80.4676L75.3813 69.7814C76.4056 67.7871 79.1758 67.5801 80.4851 69.4L85.4864 76.3515L90.9067 83.2924C92.1324 84.8621 94.5193 84.8236 95.6938 83.2153L101.216 75.6535L108.665 66.905C108.939 66.583 109.142 66.2066 109.261 65.8006L114.047 49.3996C114.889 46.5149 118.978 46.5221 119.81 49.4098L122.777 59.712C123.52 62.2948 127.024 62.6715 128.3 60.3058L130.642 55.9627C131.63 54.13 134.14 53.8369 135.524 55.3924L140.54 61.0303L148.405 71.3512L154.906 82.7808C155.677 84.1363 157.358 84.6751 158.774 84.0202L162.933 82.0956C163.699 81.7414 164.578 81.7259 165.356 82.0528L171.153 84.4901C171.705 84.7223 172.175 85.1145 172.502 85.6162L178.544 94.8757C179.315 96.0573 180.805 96.542 182.124 96.04L187.73 93.9059L193.403 92.0765C194.696 91.6598 196.107 92.1632 196.844 93.3038L203.089 102.97C203.333 103.347 203.489 103.775 203.545 104.22L208.536 143.549C208.976 147.016 213.983 147.058 214.481 143.598L218.19 117.841C218.566 115.229 221.889 114.341 223.519 116.416L226.683 120.443C226.928 120.755 227.109 121.113 227.215 121.495L233.939 145.754C234.445 147.582 236.499 148.487 238.189 147.627L241.639 145.874C242.37 145.502 242.917 144.847 243.153 144.061L250.575 119.326C250.624 119.162 250.687 119.003 250.763 118.85L258.379 103.576C258.468 103.396 258.576 103.226 258.699 103.068L265.242 94.6907C265.939 93.7988 267.078 93.3749 268.188 93.5943L273.567 94.6576C274.012 94.7456 274.431 94.9333 274.793 95.2066L280.496 99.5132C281.471 100.249 282.794 100.321 283.842 99.6949L289.389 96.3829C289.773 96.1534 290.101 95.8408 290.349 95.4681L297.838 84.2048L304.571 71.7091C305.233 70.4796 306.657 69.8699 308.004 70.2385L313.011 71.609C313.379 71.7095 313.762 71.7392 314.14 71.6964L320.452 70.9825C321.089 70.9104 321.732 71.0443 322.287 71.3646L328.924 75.1911C329.171 75.3339 329.397 75.5114 329.595 75.7182L337.162 83.6436L343.84 89.9414C344.58 90.6396 345.624 90.9149 346.612 90.6727L351.196 89.5495C352.244 89.2926 353.35 89.6187 354.091 90.4035L360.133 96.8018C360.54 97.2327 360.81 97.7745 360.909 98.3588L366.481 131.138C367.012 134.262 371.395 134.536 372.311 131.502L375.413 121.223C375.965 119.393 378.065 118.539 379.738 119.465L383.246 121.408C383.953 121.799 384.472 122.459 384.686 123.238L391.406 147.692C391.851 149.311 393.538 150.249 395.148 149.774L398.376 148.822C399.427 148.511 400.226 147.652 400.459 146.581L405.422 123.734C406.084 120.69 410.374 120.547 411.237 123.541L415.67 138.924C415.763 139.248 415.911 139.554 416.106 139.829L422.142 148.337C423.018 149.572 424.677 149.96 426.01 149.243L430.597 146.775C431.207 146.447 431.685 145.918 431.949 145.278L439.405 127.22L447.27 109.26L454.869 95.7532C455.045 95.4403 455.276 95.1615 455.55 94.9301L462.813 88.8101C462.937 88.7053 463.053 88.5905 463.159 88.4669L469.618 80.9209C470.378 80.0331 471.585 79.6674 472.71 79.9839L477.141 81.2304C478.13 81.5088 479.193 81.2611 479.958 80.5742L486.239 74.9315C486.475 74.7201 486.675 74.4728 486.833 74.1988L494.326 61.2104C494.415 61.0561 494.517 60.91 494.632 60.7738L499.306 55.239C500.717 53.5685 503.384 53.9198 504.314 55.8988L510.189 68.4026L517.324 89.2001C517.757 90.4605 518.969 91.2846 520.3 91.2234L524.61 91.0254C525.444 90.9871 526.257 91.2985 526.852 91.8847L533.092 98.0284C533.541 98.4715 534.12 98.7613 534.744 98.8565L541.326 99.8607C541.54 99.8934 541.758 99.9028 541.975 99.8885L547.35 99.5356C548.641 99.4508 549.841 100.204 550.327 101.404L557.283 118.588C557.346 118.745 557.423 118.895 557.512 119.039L564.76 130.775C565.075 131.285 565.535 131.688 566.082 131.934L570.527 133.933C571.976 134.585 573.682 133.994 574.417 132.585L577.001 127.633C578.315 125.116 582.066 125.663 582.606 128.45L587.168 152.001C587.712 154.809 591.504 155.335 592.792 152.781L596.703 145.026L603.681 127.396C604.199 126.088 605.556 125.315 606.946 125.538L626.025 128.599C627.301 128.804 628.565 128.168 629.161 127.022L636.027 113.833L642.578 96.2641C643.251 94.4601 645.425 93.7478 647.035 94.8039L651.008 97.4099C651.496 97.7305 651.881 98.1868 652.114 98.7228L658.439 113.279C659.094 114.787 660.841 115.487 662.356 114.848L666.578 113.068C667.168 112.819 667.663 112.388 667.991 111.838L675.351 99.4725L682.921 89.6428C683.116 89.389 683.27 89.1056 683.376 88.8033L688.74 73.4741C689.615 70.9725 693.067 70.7519 694.254 73.1219L697.488 79.5806C698.273 81.1485 700.23 81.7118 701.728 80.8012L706.811 77.7132L711.084 74.8505C712.822 73.6854 715.19 74.6143 715.673 76.651L721.866 102.784C722.241 104.368 723.811 105.364 725.404 105.028L729.76 104.11C730.185 104.02 730.586 103.839 730.934 103.58L735.634 100.077C737.05 99.023 739.065 99.412 739.986 100.917L745.541 109.996C745.924 110.622 746.523 111.086 747.225 111.3L753.25 113.136C753.742 113.286 754.187 113.56 754.542 113.931L761.865 121.576L769.408 128.333C769.621 128.524 769.806 128.745 769.957 128.989L775.27 137.568C776.385 139.369 778.965 139.479 780.228 137.778L785.129 131.183C785.347 130.889 785.51 130.557 785.609 130.205L790.59 112.484C791.398 109.61 795.45 109.551 796.341 112.4L799.957 123.958C800.565 125.903 802.893 126.688 804.555 125.51L808.446 122.752C808.845 122.469 809.169 122.093 809.39 121.656L816.819 106.923C816.885 106.792 816.961 106.665 817.046 106.545L824.617 95.8076C824.728 95.6504 824.853 95.5043 824.992 95.3712L831.704 88.9337C832.306 88.3559 833.122 88.0552 833.956 88.1039L838.909 88.3933C839.911 88.4518 840.818 89.008 841.324 89.875L847.988 101.283C848.244 101.721 848.607 102.087 849.043 102.347L856.243 106.634L862.448 111.268C863.447 112.014 864.804 112.064 865.855 111.394L871.442 107.835C871.792 107.612 872.092 107.318 872.323 106.973L877.641 99.0218C878.745 97.3718 881.118 97.2293 882.411 98.7355L887.348 104.485C887.582 104.759 887.864 104.987 888.18 105.161L894.044 108.38C894.987 108.897 896.133 108.871 897.051 108.311L900.724 106.069C902.195 105.172 904.117 105.695 904.931 107.213L918.046 131.683C918.701 132.905 920.107 133.519 921.449 133.169L924.555 132.357C925.98 131.984 927.464 132.701 928.058 134.047L934.686 149.06C934.822 149.368 935.009 149.651 935.24 149.897L942.545 157.708C942.685 157.858 942.81 158.023 942.917 158.199L950.622 170.878L958.02 180.021C958.326 180.4 958.721 180.698 959.169 180.891L965.272 183.51C965.966 183.807 966.747 183.832 967.458 183.58L972.964 181.625C973.762 181.342 974.641 181.408 975.387 181.808L980.474 184.538C981.461 185.067 982.661 185.003 983.586 184.37L988.168 181.236C989.231 180.509 990.638 180.541 991.666 181.315L996.042 184.608C997.093 185.399 998.538 185.413 999.605 184.641L1005.27 180.537C1005.54 180.345 1005.84 180.198 1006.15 180.101L1013.29 177.893C1013.46 177.843 1013.63 177.806 1013.8 177.784L1020.16 176.963C1020.96 176.86 1021.68 176.444 1022.16 175.806L1028.2 167.886C1028.86 167.023 1029.94 166.583 1031.01 166.735L1037.14 167.601L1044.29 167.965C1044.75 167.989 1045.22 167.902 1045.65 167.711L1052.64 164.613C1052.79 164.546 1052.93 164.467 1053.07 164.375L1060.09 159.747C1060.51 159.471 1060.99 159.304 1061.49 159.262L1068.31 158.686C1068.5 158.67 1068.69 158.636 1068.87 158.585L1075.39 156.75C1076.08 156.555 1076.82 156.616 1077.47 156.921L1084.32 160.129L1092.19 164.125L1099.67 167.917C1099.92 168.046 1100.16 168.21 1100.37 168.405L1107.31 174.914C1107.71 175.289 1108.2 175.548 1108.74 175.661L1115.57 177.101C1115.71 177.131 1115.86 177.15 1116 177.159L1122.62 177.578C1123.29 177.621 1123.92 177.886 1124.42 178.331L1138.59 190.94C1139.1 191.393 1139.75 191.659 1140.43 191.695L1145.96 191.984C1146.78 192.027 1147.55 192.406 1148.08 193.031L1155.11 201.259L1158.96 207.009C1160.44 209.226 1163.87 208.546 1164.39 205.93L1170.03 177.855C1170.43 175.87 1172.64 174.842 1174.42 175.815L1178.15 177.861C1178.51 178.062 1178.83 178.337 1179.09 178.668L1185.09 186.513C1185.95 187.638 1187.48 188.007 1188.76 187.4L1194.43 184.706L1201.99 181.769C1202.19 181.689 1202.39 181.588 1202.57 181.466L1209.87 176.586C1210.06 176.455 1210.27 176.347 1210.5 176.265L1218.03 173.491L1225.58 169.695C1225.79 169.592 1226 169.513 1226.23 169.459L1232.33 167.988C1233.23 167.772 1233.98 167.154 1234.36 166.313L1241.47 150.674C1241.57 150.456 1241.7 150.25 1241.84 150.062L1249.49 140.337L1256.99 132.524C1257.23 132.276 1257.51 132.071 1257.82 131.918L1264.08 128.794C1264.81 128.431 1265.65 128.379 1266.42 128.65L1271.97 130.611C1272.68 130.863 1273.28 131.378 1273.63 132.051L1280.75 145.703C1280.88 145.947 1281.04 146.171 1281.23 146.371L1288.42 154.015C1288.68 154.288 1288.98 154.509 1289.32 154.67L1296.28 157.972C1296.54 158.097 1296.79 158.261 1297 158.457L1304.54 165.275L1311.05 169.888C1311.89 170.485 1312.98 170.607 1313.94 170.211L1318.27 168.412C1319.46 167.917 1320.84 168.241 1321.69 169.218L1326.68 174.984C1327.55 175.98 1328.96 176.296 1330.16 175.763L1336 173.182" stroke="white" stroke-width="3.5"></path><path d="M-701 44.7544L-695.595 75.7373C-695.037 78.9375 -690.5 79.0914 -689.726 75.9364L-685.27 57.7715L-680.693 38.4057C-679.946 35.2452 -675.41 35.3596 -674.823 38.5537L-669.601 66.9773C-669.561 67.1976 -669.496 67.4127 -669.408 67.6186L-662.559 83.5755C-662.035 84.7956 -660.771 85.5264 -659.453 85.3718L-655.57 84.9167C-654.485 84.7895 -653.555 84.082 -653.142 83.07L-645.946 65.4247L-638.145 38.254C-638.102 38.1069 -638.049 37.9633 -637.985 37.8243L-631.536 23.8592C-630.818 22.3031 -628.944 21.6642 -627.424 22.4574L-623.575 24.4671C-622.798 24.8725 -622.238 25.5969 -622.04 26.4503L-614.705 58.1524C-614.563 58.767 -614.231 59.3211 -613.755 59.736L-606.912 65.7107C-606.719 65.8791 -606.549 66.0714 -606.405 66.283L-599.155 76.9373C-598.893 77.3227 -598.545 77.6416 -598.138 77.8689L-592.442 81.0498C-591.486 81.5838 -590.315 81.5544 -589.387 80.973L-586.299 79.0386C-584.64 77.9995 -582.446 78.8016 -581.849 80.6657L-575.162 101.54L-567.625 118.984C-567.411 119.481 -567.066 119.91 -566.627 120.227L-559.612 125.287C-559.493 125.373 -559.367 125.451 -559.235 125.519L-552.639 128.93C-551.951 129.285 -551.428 129.893 -551.178 130.625L-546.254 145.034C-545.362 147.645 -541.717 147.769 -540.649 145.225L-535.838 133.759L-527.973 113.558L-523.228 95.3813C-522.434 92.3385 -518.088 92.4127 -517.398 95.481L-514.715 107.416C-514.041 110.415 -509.828 110.58 -508.922 107.642L-504.615 93.6806C-504.46 93.179 -504.176 92.7268 -503.792 92.3691L-499.821 88.673C-498.251 87.211 -495.698 87.8226 -494.96 89.8376L-492.155 97.5003C-491.126 100.311 -487.068 100.047 -486.411 97.1272L-483.034 82.1069C-482.376 79.1824 -478.309 78.9241 -477.286 81.7419L-474.348 89.8428C-473.647 91.7753 -471.254 92.4462 -469.65 91.1599L-465.054 87.4728L-457.773 79.9001C-457.391 79.5027 -457.126 79.0077 -457.007 78.4694L-449.441 44.2974C-449.364 43.9503 -449.226 43.6195 -449.033 43.3207L-444.376 36.0953C-443.103 34.12 -440.156 34.3092 -439.146 36.431L-435.284 44.5428C-434.433 46.3294 -432.116 46.8177 -430.617 45.5263L-429.272 44.3677C-427.616 42.941 -425.039 43.7079 -424.432 45.808L-417.97 68.1749C-417.9 68.4159 -417.801 68.6473 -417.673 68.8636L-410.358 81.2961C-410.123 81.6962 -409.798 82.0363 -409.408 82.2894L-402.873 86.5407C-402.391 86.8542 -402.01 87.2995 -401.774 87.8237L-394.27 104.486L-386.542 117.828C-386.451 117.985 -386.375 118.149 -386.314 118.32L-378.663 139.676C-378.582 139.903 -378.473 140.12 -378.34 140.321L-371.337 150.89C-370.912 151.53 -370.258 151.984 -369.51 152.156L-364.528 153.304C-363.468 153.548 -362.623 154.348 -362.32 155.393L-357.756 171.15C-356.926 174.016 -352.874 174.044 -352.005 171.189L-347.081 155.014L-342.264 143.642C-341.192 141.111 -337.563 141.234 -336.666 143.833L-331.96 157.464C-331.587 158.543 -330.634 159.318 -329.502 159.461L-325.426 159.979C-324.247 160.128 -323.091 159.568 -322.478 158.55L-316.245 148.199C-315.845 147.535 -315.204 147.052 -314.456 146.85L-307.757 145.044L-300.332 142.776C-300.04 142.687 -299.737 142.643 -299.431 142.646L-293.679 142.693C-292.651 142.702 -291.689 142.183 -291.132 141.318L-285.83 133.089C-284.916 131.67 -283.012 131.284 -281.618 132.235L-277.094 135.321C-276.576 135.675 -275.96 135.857 -275.333 135.842L-270.185 135.721C-269.102 135.696 -268.117 135.089 -267.608 134.134L-261.603 122.871C-260.987 121.716 -259.692 121.093 -258.405 121.334L-253.12 122.321C-252.843 122.372 -252.575 122.463 -252.324 122.589L-244.838 126.349L-237.71 130.507C-237.228 130.789 -236.678 130.93 -236.12 130.915L-230.442 130.767C-229.593 130.745 -228.774 131.084 -228.189 131.699L-221.951 138.262C-221.492 138.745 -220.886 139.061 -220.228 139.161L-214.275 140.067C-213.69 140.156 -213.145 140.416 -212.708 140.814L-205.514 147.355L-197.976 152.848C-197.759 153.007 -197.564 153.193 -197.396 153.404L-190.049 162.627C-189.873 162.848 -189.729 163.092 -189.622 163.353L-182.294 181.133C-182.05 181.723 -181.625 182.22 -181.079 182.552L-174.885 186.321C-174.345 186.65 -173.922 187.141 -173.678 187.725L-168.742 199.503C-167.746 201.88 -164.416 201.978 -163.282 199.664L-158.433 189.773C-158.361 189.625 -158.301 189.472 -158.253 189.314L-153.003 171.795C-152.18 169.047 -148.339 168.912 -147.324 171.595L-143.558 181.548C-143.011 182.992 -141.458 183.786 -139.967 183.382L-134.73 181.963L-126.865 178.836L-119 174.91L-111.135 169.65L-104.282 166.29C-103.63 165.971 -102.884 165.899 -102.183 166.087L-96.1414 167.71C-95.6584 167.84 -95.1507 167.847 -94.6643 167.731L-88.5508 166.267C-87.8964 166.11 -87.3137 165.738 -86.8963 165.21L-80.5648 157.204C-80.0025 156.493 -79.149 156.074 -78.2427 156.065L-72.9181 156.01C-72.2035 156.002 -71.5149 155.74 -70.9764 155.27L-64.1599 149.32C-64.0176 149.196 -63.864 149.086 -63.701 148.991L-58.0386 145.681C-56.8804 145.004 -55.4135 145.178 -54.4462 146.108L-48.7205 151.609C-48.3888 151.928 -47.9883 152.166 -47.5499 152.305L-40.5604 154.524C-40.4212 154.568 -40.2855 154.623 -40.1542 154.687L-33.7037 157.83C-32.9298 158.207 -32.0312 158.233 -31.2364 157.902L-26.4478 155.908C-25.34 155.447 -24.0639 155.69 -23.2034 156.527L-18.604 160.998C-17.5416 162.031 -15.8842 162.133 -14.7027 161.239L-11.8195 159.058C-10.3067 157.913 -8.12464 158.442 -7.3043 160.153L-1.35576 172.556C-1.14004 173.006 -0.815557 173.395 -0.411685 173.687L5.28803 177.82C6.23318 178.505 7.49002 178.58 8.5097 178.011L14.1511 174.866C14.5148 174.664 14.9168 174.539 15.3314 174.5L20.9204 173.975C21.9457 173.879 22.8499 173.263 23.3156 172.345L30.2124 158.743C30.3581 158.456 30.4566 158.147 30.504 157.828L35.4326 124.706C35.9376 121.313 40.8222 121.287 41.3625 124.675L43.5335 138.287C44.0604 141.591 48.7812 141.683 49.4377 138.403L53.8316 116.452C53.9584 115.818 54.2867 115.242 54.7675 114.81L61.2484 108.983C61.6688 108.605 61.9738 108.116 62.1284 107.572L69.6754 81.0181C69.7295 80.8279 69.8022 80.6435 69.8926 80.4676L75.3813 69.7814C76.4056 67.7871 79.1758 67.5801 80.4851 69.4L85.4864 76.3515L90.9067 83.2924C92.1324 84.8621 94.5193 84.8236 95.6938 83.2153L101.216 75.6535L108.665 66.905C108.939 66.583 109.142 66.2066 109.261 65.8006L114.047 49.3996C114.889 46.5149 118.978 46.5221 119.81 49.4098L122.777 59.712C123.52 62.2948 127.024 62.6715 128.3 60.3058L130.642 55.9627C131.63 54.13 134.14 53.8369 135.524 55.3924L140.54 61.0303L148.405 71.3512L154.906 82.7808C155.677 84.1363 157.358 84.6751 158.774 84.0202L162.933 82.0956C163.699 81.7414 164.578 81.7259 165.356 82.0528L171.153 84.4901C171.705 84.7223 172.175 85.1145 172.502 85.6162L178.544 94.8757C179.315 96.0573 180.805 96.542 182.124 96.04L187.73 93.9059L193.403 92.0765C194.696 91.6598 196.107 92.1632 196.844 93.3038L203.089 102.97C203.333 103.347 203.489 103.775 203.545 104.22L208.536 143.549C208.976 147.016 213.983 147.058 214.481 143.598L218.19 117.841C218.566 115.229 221.889 114.341 223.519 116.416L226.683 120.443C226.928 120.755 227.109 121.113 227.215 121.495L233.939 145.754C234.445 147.582 236.499 148.487 238.189 147.627L241.639 145.874C242.37 145.502 242.917 144.847 243.153 144.061L250.575 119.326C250.624 119.162 250.687 119.003 250.763 118.85L258.379 103.576C258.468 103.396 258.576 103.226 258.699 103.068L265.242 94.6907C265.939 93.7988 267.078 93.3749 268.188 93.5943L273.567 94.6576C274.012 94.7456 274.431 94.9333 274.793 95.2066L280.496 99.5132C281.471 100.249 282.794 100.321 283.842 99.6949L289.389 96.3829C289.773 96.1534 290.101 95.8408 290.349 95.4681L297.838 84.2048L304.571 71.7091C305.233 70.4796 306.657 69.8699 308.004 70.2385L313.011 71.609C313.379 71.7095 313.762 71.7392 314.14 71.6964L320.452 70.9825C321.089 70.9104 321.732 71.0443 322.287 71.3646L328.924 75.1911C329.171 75.3339 329.397 75.5114 329.595 75.7182L337.162 83.6436L343.84 89.9414C344.58 90.6396 345.624 90.9149 346.612 90.6727L351.196 89.5495C352.244 89.2926 353.35 89.6187 354.091 90.4035L360.133 96.8018C360.54 97.2327 360.81 97.7745 360.909 98.3588L366.481 131.138C367.012 134.262 371.395 134.536 372.311 131.502L375.413 121.223C375.965 119.393 378.065 118.539 379.738 119.465L383.246 121.408C383.953 121.799 384.472 122.459 384.686 123.238L391.406 147.692C391.851 149.311 393.538 150.249 395.148 149.774L398.376 148.822C399.427 148.511 400.226 147.652 400.459 146.581L405.422 123.734C406.084 120.69 410.374 120.547 411.237 123.541L415.67 138.924C415.763 139.248 415.911 139.554 416.106 139.829L422.142 148.337C423.018 149.572 424.677 149.96 426.01 149.243L430.597 146.775C431.207 146.447 431.685 145.918 431.949 145.278L439.405 127.22L447.27 109.26L454.869 95.7532C455.045 95.4403 455.276 95.1615 455.55 94.9301L462.813 88.8101C462.937 88.7053 463.053 88.5905 463.159 88.4669L469.618 80.9209C470.378 80.0331 471.585 79.6674 472.71 79.9839L477.141 81.2304C478.13 81.5088 479.193 81.2611 479.958 80.5742L486.239 74.9315C486.475 74.7201 486.675 74.4728 486.833 74.1988L494.326 61.2104C494.415 61.0561 494.517 60.91 494.632 60.7738L499.306 55.239C500.717 53.5685 503.384 53.9198 504.314 55.8988L510.189 68.4026L517.324 89.2001C517.757 90.4605 518.969 91.2846 520.3 91.2234L524.61 91.0254C525.444 90.9871 526.257 91.2985 526.852 91.8847L533.092 98.0284C533.541 98.4715 534.12 98.7613 534.744 98.8565L541.326 99.8607C541.54 99.8934 541.758 99.9028 541.975 99.8885L547.35 99.5356C548.641 99.4508 549.841 100.204 550.327 101.404L557.283 118.588C557.346 118.745 557.423 118.895 557.512 119.039L564.76 130.775C565.075 131.285 565.535 131.688 566.082 131.934L570.527 133.933C571.976 134.585 573.682 133.994 574.417 132.585L577.001 127.633C578.315 125.116 582.066 125.663 582.606 128.45L587.168 152.001C587.712 154.809 591.504 155.335 592.792 152.781L596.703 145.026L603.681 127.396C604.199 126.088 605.556 125.315 606.946 125.538L626.025 128.599C627.301 128.804 628.565 128.168 629.161 127.022L636.027 113.833L642.578 96.2641C643.251 94.4601 645.425 93.7478 647.035 94.8039L651.008 97.4099C651.496 97.7305 651.881 98.1868 652.114 98.7228L658.439 113.279C659.094 114.787 660.841 115.487 662.356 114.848L666.578 113.068C667.168 112.819 667.663 112.388 667.991 111.838L675.351 99.4725L682.921 89.6428C683.116 89.389 683.27 89.1056 683.376 88.8033L688.74 73.4741C689.615 70.9725 693.067 70.7519 694.254 73.1219L697.488 79.5806C698.273 81.1485 700.23 81.7118 701.728 80.8012L706.811 77.7132L711.084 74.8505C712.822 73.6854 715.19 74.6143 715.673 76.651L721.866 102.784C722.241 104.368 723.811 105.364 725.404 105.028L729.76 104.11C730.185 104.02 730.586 103.839 730.934 103.58L735.634 100.077C737.05 99.023 739.065 99.412 739.986 100.917L745.541 109.996C745.924 110.622 746.523 111.086 747.225 111.3L753.25 113.136C753.742 113.286 754.187 113.56 754.542 113.931L761.865 121.576L769.408 128.333C769.621 128.524 769.806 128.745 769.957 128.989L775.27 137.568C776.385 139.369 778.965 139.479 780.228 137.778L785.129 131.183C785.347 130.889 785.51 130.557 785.609 130.205L790.59 112.484C791.398 109.61 795.45 109.551 796.341 112.4L799.957 123.958C800.565 125.903 802.893 126.688 804.555 125.51L808.446 122.752C808.845 122.469 809.169 122.093 809.39 121.656L816.819 106.923C816.885 106.792 816.961 106.665 817.046 106.545L824.617 95.8076C824.728 95.6504 824.853 95.5043 824.992 95.3712L831.704 88.9337C832.306 88.3559 833.122 88.0552 833.956 88.1039L838.909 88.3933C839.911 88.4518 840.818 89.008 841.324 89.875L847.988 101.283C848.244 101.721 848.607 102.087 849.043 102.347L856.243 106.634L862.448 111.268C863.447 112.014 864.804 112.064 865.855 111.394L871.442 107.835C871.792 107.612 872.092 107.318 872.323 106.973L877.641 99.0218C878.745 97.3718 881.118 97.2293 882.411 98.7355L887.348 104.485C887.582 104.759 887.864 104.987 888.18 105.161L894.044 108.38C894.987 108.897 896.133 108.871 897.051 108.311L900.724 106.069C902.195 105.172 904.117 105.695 904.931 107.213L918.046 131.683C918.701 132.905 920.107 133.519 921.449 133.169L924.555 132.357C925.98 131.984 927.464 132.701 928.058 134.047L934.686 149.06C934.822 149.368 935.009 149.651 935.24 149.897L942.545 157.708C942.685 157.858 942.81 158.023 942.917 158.199L950.622 170.878L958.02 180.021C958.326 180.4 958.721 180.698 959.169 180.891L965.272 183.51C965.966 183.807 966.747 183.832 967.458 183.58L972.964 181.625C973.762 181.342 974.641 181.408 975.387 181.808L980.474 184.538C981.461 185.067 982.661 185.003 983.586 184.37L988.168 181.236C989.231 180.509 990.638 180.541 991.666 181.315L996.042 184.608C997.093 185.399 998.538 185.413 999.605 184.641L1005.27 180.537C1005.54 180.345 1005.84 180.198 1006.15 180.101L1013.29 177.893C1013.46 177.843 1013.63 177.806 1013.8 177.784L1020.16 176.963C1020.96 176.86 1021.68 176.444 1022.16 175.806L1028.2 167.886C1028.86 167.023 1029.94 166.583 1031.01 166.735L1037.14 167.601L1044.29 167.965C1044.75 167.989 1045.22 167.902 1045.65 167.711L1052.64 164.613C1052.79 164.546 1052.93 164.467 1053.07 164.375L1060.09 159.747C1060.51 159.471 1060.99 159.304 1061.49 159.262L1068.31 158.686C1068.5 158.67 1068.69 158.636 1068.87 158.585L1075.39 156.75C1076.08 156.555 1076.82 156.616 1077.47 156.921L1084.32 160.129L1092.19 164.125L1099.67 167.917C1099.92 168.046 1100.16 168.21 1100.37 168.405L1107.31 174.914C1107.71 175.289 1108.2 175.548 1108.74 175.661L1115.57 177.101C1115.71 177.131 1115.86 177.15 1116 177.159L1122.62 177.578C1123.29 177.621 1123.92 177.886 1124.42 178.331L1138.59 190.94C1139.1 191.393 1139.75 191.659 1140.43 191.695L1145.96 191.984C1146.78 192.027 1147.55 192.406 1148.08 193.031L1155.11 201.259L1158.96 207.009C1160.44 209.226 1163.87 208.546 1164.39 205.93L1170.03 177.855C1170.43 175.87 1172.64 174.842 1174.42 175.815L1178.15 177.861C1178.51 178.062 1178.83 178.337 1179.09 178.668L1185.09 186.513C1185.95 187.638 1187.48 188.007 1188.76 187.4L1194.43 184.706L1201.99 181.769C1202.19 181.689 1202.39 181.588 1202.57 181.466L1209.87 176.586C1210.06 176.455 1210.27 176.347 1210.5 176.265L1218.03 173.491L1225.58 169.695C1225.79 169.592 1226 169.513 1226.23 169.459L1232.33 167.988C1233.23 167.772 1233.98 167.154 1234.36 166.313L1241.47 150.674C1241.57 150.456 1241.7 150.25 1241.84 150.062L1249.49 140.337L1256.99 132.524C1257.23 132.276 1257.51 132.071 1257.82 131.918L1264.08 128.794C1264.81 128.431 1265.65 128.379 1266.42 128.65L1271.97 130.611C1272.68 130.863 1273.28 131.378 1273.63 132.051L1280.75 145.703C1280.88 145.947 1281.04 146.171 1281.23 146.371L1288.42 154.015C1288.68 154.288 1288.98 154.509 1289.32 154.67L1296.28 157.972C1296.54 158.097 1296.79 158.261 1297 158.457L1304.54 165.275L1311.05 169.888C1311.89 170.485 1312.98 170.607 1313.94 170.211L1318.27 168.412C1319.46 167.917 1320.84 168.241 1321.69 169.218L1326.68 174.984C1327.55 175.98 1328.96 176.296 1330.16 175.763L1336 173.182" stroke="#F5A623" stroke-width="1.5"></path><path d="M-280 164.532L-264.53 172.22C-263.956 172.505 -263.279 172.498 -262.711 172.2L-247.959 164.46C-247.492 164.215 -246.948 164.165 -246.444 164.319L-231.079 169.024C-230.924 169.071 -230.776 169.137 -230.637 169.221L-215.027 178.572C-214.66 178.792 -214.231 178.889 -213.804 178.847L-198.077 177.304L-182.538 176.729C-181.997 176.709 -181.488 176.471 -181.126 176.07L-166.056 159.345C-165.591 158.828 -164.891 158.591 -164.208 158.717L-149.185 161.487C-149.011 161.519 -148.842 161.574 -148.683 161.65L-133.124 169.105C-132.743 169.287 -132.314 169.344 -131.899 169.268L-116.154 166.376L-100.53 163.718C-100.041 163.635 -99.5993 163.372 -99.2925 162.982L-83.3846 142.715L-67.7051 115.915C-67.2815 115.191 -66.4512 114.808 -65.6257 114.956L-51.2678 117.532C-50.8442 117.608 -50.4564 117.818 -50.162 118.132L-35.9157 133.326C-35.0471 134.252 -33.5464 134.145 -32.8182 133.105L-18.2948 112.355C-18.0063 111.943 -17.5732 111.655 -17.0817 111.548L-2.30651 108.332C-1.76731 108.214 -1.20357 108.325 -0.748722 108.637L13.8119 118.639C14.4835 119.101 15.3679 119.108 16.0475 118.659L30.4432 109.139C30.9853 108.781 31.6678 108.708 32.2732 108.944L47.6923 114.959L63.1422 122.044C63.7288 122.314 64.4093 122.283 64.9695 121.962L79.6163 113.579C80.1499 113.273 80.7942 113.23 81.3636 113.462L96.8462 119.762L110.983 127.625C112.123 128.259 113.555 127.65 113.889 126.389L128.322 71.8592C128.786 70.1069 131.155 69.826 132.016 71.4213L144.4 94.3717C145.121 95.708 147.009 95.785 147.837 94.5119L161.891 72.8866C162.205 72.4037 162.711 72.0795 163.281 71.997L177.857 69.888C178.436 69.8042 178.949 69.471 179.262 68.9763L193.599 46.2668C194.348 45.0797 196.055 45.014 196.894 46.1401L211.347 65.5515C211.474 65.7221 211.627 65.8714 211.802 65.9937L227.365 76.9262C227.727 77.1803 228.163 77.3074 228.604 77.2876L243.497 76.6218C244.017 76.5986 244.525 76.779 244.915 77.1248L260.043 90.5684C260.457 90.9363 261.005 91.1161 261.557 91.0647L276.613 89.663C276.918 89.6346 277.213 89.5365 277.474 89.3764L293.065 79.8125C293.326 79.6524 293.547 79.4346 293.71 79.1758L309.846 53.6297L324.918 29.1339C325.59 28.0408 327.104 27.8551 328.02 28.7531L341.737 42.1873C342.276 42.7153 343.066 42.8949 343.78 42.6519L358.327 37.7022C358.762 37.5541 359.235 37.5605 359.667 37.7205L375.385 43.5511L391.6 47.6583C391.713 47.6868 391.828 47.7055 391.944 47.7141L406.895 48.8209C407.664 48.8779 408.332 49.3718 408.611 50.0905L422.988 87.0547C423.603 88.636 425.784 88.7813 426.604 87.2955L439.383 64.122C440.095 62.8298 441.914 62.7278 442.767 63.9323L455.887 82.4678C456.62 83.5031 458.119 83.6035 458.983 82.675L472.395 68.2681C473.122 67.4875 474.333 67.4144 475.148 68.1018L488.489 79.3501C489.356 80.0815 490.657 79.9457 491.355 79.051L506.045 60.2142C506.315 59.8677 506.692 59.6199 507.117 59.5089L522.4 55.5199C522.694 55.4433 523.001 55.4344 523.298 55.4939L538.898 58.6153C539.118 58.6593 539.344 58.666 539.567 58.635L554.64 56.534C555.255 56.4483 555.875 56.6532 556.318 57.0884L571.717 72.2211C571.904 72.405 572.053 72.6238 572.155 72.8652L587.327 108.561C587.853 109.799 589.425 110.175 590.454 109.311L604.473 97.5339C604.669 97.3695 604.894 97.2441 605.137 97.1646L619.22 92.5541C620.283 92.2062 621.424 92.7971 621.754 93.8655L636.361 141.236C636.846 142.81 638.92 143.155 639.889 141.822L651.974 125.201C652.86 123.984 654.722 124.144 655.386 125.494L668.556 152.25C669.281 153.723 671.374 153.744 672.128 152.285L686.515 124.424C686.632 124.196 686.792 123.993 686.987 123.826L702.64 110.347C702.925 110.101 703.274 109.941 703.647 109.885L718.511 107.646C719.112 107.555 719.722 107.743 720.168 108.156L735.624 122.473C735.771 122.609 735.939 122.723 736.12 122.81L751.649 130.234C752.027 130.415 752.339 130.71 752.541 131.078L767.593 158.579C768.147 159.591 769.44 159.926 770.416 159.31L784.765 150.249C784.921 150.151 785.063 150.031 785.186 149.894L801.385 131.847L817.279 112.929C817.595 112.553 818.038 112.307 818.524 112.236L832.596 110.197C833.51 110.065 834.396 110.575 834.74 111.432L849.228 147.578C849.805 149.019 851.733 149.281 852.675 148.046L866.396 130.05C866.732 129.609 867.237 129.327 867.789 129.273L882.743 127.793C883.112 127.756 883.484 127.823 883.818 127.986L899.445 135.623C899.609 135.703 899.784 135.76 899.964 135.793L915.668 138.657C915.938 138.706 916.215 138.7 916.482 138.637L932.129 134.984C932.349 134.933 932.559 134.844 932.75 134.723L947.559 125.273C948.319 124.788 949.309 124.871 949.977 125.477L963.33 137.574C964.295 138.449 965.825 138.182 966.438 137.033L980.019 111.557C980.736 110.213 982.633 110.132 983.462 111.41L997.873 133.64C997.957 133.771 998.057 133.892 998.17 133.999L1012.47 147.654C1013.43 148.57 1015 148.315 1015.62 147.143L1030.77 118.495L1060.74 41.3551C1061.49 39.4314 1064.31 39.7628 1064.59 41.8075L1079.37 149.504C1079.6 151.148 1081.61 151.818 1082.78 150.638L1096.31 136.94L1112.57 123.312C1112.65 123.246 1112.74 123.186 1112.82 123.133L1127.36 114.356C1128.31 113.783 1129.54 114.09 1130.11 115.04L1144.87 139.689C1145.24 140.301 1145.9 140.671 1146.61 140.661L1160.64 140.471C1161.38 140.46 1162.06 140.04 1162.39 139.378L1177.12 110.447C1177.7 109.323 1179.15 109.003 1180.15 109.784L1193.19 120.07C1194 120.707 1195.16 120.627 1195.87 119.885L1209.65 105.546C1210.4 104.763 1211.64 104.723 1212.44 105.456L1227.22 118.979C1227.33 119.082 1227.45 119.171 1227.58 119.246L1241.97 127.35C1242.95 127.905 1244.2 127.533 1244.72 126.529L1258.77 99.4741C1259.43 98.209 1261.16 98.0178 1262.08 99.1092L1275.41 114.967C1276.05 115.737 1277.17 115.907 1278.02 115.363L1290.72 107.201C1291.83 106.487 1293.31 107.026 1293.71 108.285L1308.96 156.944C1309.18 157.628 1309.74 158.145 1310.44 158.299L1325.48 161.615C1325.62 161.647 1325.77 161.663 1325.91 161.662L1341.92 161.6C1342.02 161.6 1342.13 161.608 1342.24 161.625L1357.95 164.107C1358.28 164.161 1358.6 164.3 1358.87 164.512L1373.08 175.705C1374.02 176.444 1375.4 176.2 1376.02 175.182L1389.21 153.753C1390.06 152.373 1392.11 152.523 1392.75 154.012L1406.3 185.562C1406.89 186.952 1408.76 187.202 1409.7 186.018L1422.62 169.781C1423.36 168.851 1424.74 168.767 1425.58 169.6L1440.18 183.955C1440.32 184.088 1440.47 184.2 1440.63 184.289L1455.12 192.11C1456.05 192.611 1457.21 192.306 1457.77 191.413L1472.72 167.586C1473 167.142 1473.44 166.825 1473.95 166.704L1488.87 163.139C1489.31 163.036 1489.69 162.793 1489.97 162.449L1504.17 144.829C1505.03 143.763 1506.68 143.857 1507.42 145.014L1522.13 168.214C1522.25 168.4 1522.4 168.565 1522.57 168.703L1538.57 181.55C1538.65 181.615 1538.74 181.674 1538.83 181.725L1553.3 190.026C1554.28 190.584 1555.52 190.232 1556.05 189.246L1571.32 161.171C1571.41 160.999 1571.53 160.842 1571.67 160.704L1587.74 144.836C1587.81 144.765 1587.88 144.689 1587.94 144.608L1604.08 122.938C1604.18 122.803 1604.26 122.655 1604.33 122.499L1618.73 87.2442C1619.41 85.5732 1621.78 85.5899 1622.44 87.2705L1637 124.411" stroke="white" stroke-width="3.5"></path><path d="M-280 164.532L-264.53 172.22C-263.956 172.505 -263.279 172.498 -262.711 172.2L-247.959 164.46C-247.492 164.215 -246.948 164.165 -246.444 164.319L-231.079 169.024C-230.924 169.071 -230.776 169.137 -230.637 169.221L-215.027 178.572C-214.66 178.792 -214.231 178.889 -213.804 178.847L-198.077 177.304L-182.538 176.729C-181.997 176.709 -181.488 176.471 -181.126 176.07L-166.056 159.345C-165.591 158.828 -164.891 158.591 -164.208 158.717L-149.185 161.487C-149.011 161.519 -148.842 161.574 -148.683 161.65L-133.124 169.105C-132.743 169.287 -132.314 169.344 -131.899 169.268L-116.154 166.376L-100.53 163.718C-100.041 163.635 -99.5993 163.372 -99.2925 162.982L-83.3846 142.715L-67.7051 115.915C-67.2815 115.191 -66.4512 114.808 -65.6257 114.956L-51.2678 117.532C-50.8442 117.608 -50.4564 117.818 -50.162 118.132L-35.9157 133.326C-35.0471 134.252 -33.5464 134.145 -32.8182 133.105L-18.2948 112.355C-18.0063 111.943 -17.5732 111.655 -17.0817 111.548L-2.30651 108.332C-1.76731 108.214 -1.20357 108.325 -0.748722 108.637L13.8119 118.639C14.4835 119.101 15.3679 119.108 16.0475 118.659L30.4432 109.139C30.9853 108.781 31.6678 108.708 32.2732 108.944L47.6923 114.959L63.1422 122.044C63.7288 122.314 64.4093 122.283 64.9695 121.962L79.6163 113.579C80.1499 113.273 80.7942 113.23 81.3636 113.462L96.8462 119.762L110.983 127.625C112.123 128.259 113.555 127.65 113.889 126.389L128.322 71.8592C128.786 70.1069 131.155 69.826 132.016 71.4213L144.4 94.3717C145.121 95.708 147.009 95.785 147.837 94.5119L161.891 72.8866C162.205 72.4037 162.711 72.0795 163.281 71.997L177.857 69.888C178.436 69.8042 178.949 69.471 179.262 68.9763L193.599 46.2668C194.348 45.0797 196.055 45.014 196.894 46.1401L211.347 65.5515C211.474 65.7221 211.627 65.8714 211.802 65.9937L227.365 76.9262C227.727 77.1803 228.163 77.3074 228.604 77.2876L243.497 76.6218C244.017 76.5986 244.525 76.779 244.915 77.1248L260.043 90.5684C260.457 90.9363 261.005 91.1161 261.557 91.0647L276.613 89.663C276.918 89.6346 277.213 89.5365 277.474 89.3764L293.065 79.8125C293.326 79.6524 293.547 79.4346 293.71 79.1758L309.846 53.6297L324.918 29.1339C325.59 28.0408 327.104 27.8551 328.02 28.7531L341.737 42.1873C342.276 42.7153 343.066 42.8949 343.78 42.6519L358.327 37.7022C358.762 37.5541 359.235 37.5605 359.667 37.7205L375.385 43.5511L391.6 47.6583C391.713 47.6868 391.828 47.7055 391.944 47.7141L406.895 48.8209C407.664 48.8779 408.332 49.3718 408.611 50.0905L422.988 87.0547C423.603 88.636 425.784 88.7813 426.604 87.2955L439.383 64.122C440.095 62.8298 441.914 62.7278 442.767 63.9323L455.887 82.4678C456.62 83.5031 458.119 83.6035 458.983 82.675L472.395 68.2681C473.122 67.4875 474.333 67.4144 475.148 68.1018L488.489 79.3501C489.356 80.0815 490.657 79.9457 491.355 79.051L506.045 60.2142C506.315 59.8677 506.692 59.6199 507.117 59.5089L522.4 55.5199C522.694 55.4433 523.001 55.4344 523.298 55.4939L538.898 58.6153C539.118 58.6593 539.344 58.666 539.567 58.635L554.64 56.534C555.255 56.4483 555.875 56.6532 556.318 57.0884L571.717 72.2211C571.904 72.405 572.053 72.6238 572.155 72.8652L587.327 108.561C587.853 109.799 589.425 110.175 590.454 109.311L604.473 97.5339C604.669 97.3695 604.894 97.2441 605.137 97.1646L619.22 92.5541C620.283 92.2062 621.424 92.7971 621.754 93.8655L636.361 141.236C636.846 142.81 638.92 143.155 639.889 141.822L651.974 125.201C652.86 123.984 654.722 124.144 655.386 125.494L668.556 152.25C669.281 153.723 671.374 153.744 672.128 152.285L686.515 124.424C686.632 124.196 686.792 123.993 686.987 123.826L702.64 110.347C702.925 110.101 703.274 109.941 703.647 109.885L718.511 107.646C719.112 107.555 719.722 107.743 720.168 108.156L735.624 122.473C735.771 122.609 735.939 122.723 736.12 122.81L751.649 130.234C752.027 130.415 752.339 130.71 752.541 131.078L767.593 158.579C768.147 159.591 769.44 159.926 770.416 159.31L784.765 150.249C784.921 150.151 785.063 150.031 785.186 149.894L801.385 131.847L817.279 112.929C817.595 112.553 818.038 112.307 818.524 112.236L832.596 110.197C833.51 110.065 834.396 110.575 834.74 111.432L849.228 147.578C849.805 149.019 851.733 149.281 852.675 148.046L866.396 130.05C866.732 129.609 867.237 129.327 867.789 129.273L882.743 127.793C883.112 127.756 883.484 127.823 883.818 127.986L899.445 135.623C899.609 135.703 899.784 135.76 899.964 135.793L915.668 138.657C915.938 138.706 916.215 138.7 916.482 138.637L932.129 134.984C932.349 134.933 932.559 134.844 932.75 134.723L947.559 125.273C948.319 124.788 949.309 124.871 949.977 125.477L963.33 137.574C964.295 138.449 965.825 138.182 966.438 137.033L980.019 111.557C980.736 110.213 982.633 110.132 983.462 111.41L997.873 133.64C997.957 133.771 998.057 133.892 998.17 133.999L1012.47 147.654C1013.43 148.57 1015 148.315 1015.62 147.143L1030.77 118.495L1060.74 41.3551C1061.49 39.4314 1064.31 39.7628 1064.59 41.8075L1079.37 149.504C1079.6 151.148 1081.61 151.818 1082.78 150.638L1096.31 136.94L1112.57 123.312C1112.65 123.246 1112.74 123.186 1112.82 123.133L1127.36 114.356C1128.31 113.783 1129.54 114.09 1130.11 115.04L1144.87 139.689C1145.24 140.301 1145.9 140.671 1146.61 140.661L1160.64 140.471C1161.38 140.46 1162.06 140.04 1162.39 139.378L1177.12 110.447C1177.7 109.323 1179.15 109.003 1180.15 109.784L1193.19 120.07C1194 120.707 1195.16 120.627 1195.87 119.885L1209.65 105.546C1210.4 104.763 1211.64 104.723 1212.44 105.456L1227.22 118.979C1227.33 119.082 1227.45 119.171 1227.58 119.246L1241.97 127.35C1242.95 127.905 1244.2 127.533 1244.72 126.529L1258.77 99.4741C1259.43 98.209 1261.16 98.0178 1262.08 99.1092L1275.41 114.967C1276.05 115.737 1277.17 115.907 1278.02 115.363L1290.72 107.201C1291.83 106.487 1293.31 107.026 1293.71 108.285L1308.96 156.944C1309.18 157.628 1309.74 158.145 1310.44 158.299L1325.48 161.615C1325.62 161.647 1325.77 161.663 1325.91 161.662L1341.92 161.6C1342.02 161.6 1342.13 161.608 1342.24 161.625L1357.95 164.107C1358.28 164.161 1358.6 164.3 1358.87 164.512L1373.08 175.705C1374.02 176.444 1375.4 176.2 1376.02 175.182L1389.21 153.753C1390.06 152.373 1392.11 152.523 1392.75 154.012L1406.3 185.562C1406.89 186.952 1408.76 187.202 1409.7 186.018L1422.62 169.781C1423.36 168.851 1424.74 168.767 1425.58 169.6L1440.18 183.955C1440.32 184.088 1440.47 184.2 1440.63 184.289L1455.12 192.11C1456.05 192.611 1457.21 192.306 1457.77 191.413L1472.72 167.586C1473 167.142 1473.44 166.825 1473.95 166.704L1488.87 163.139C1489.31 163.036 1489.69 162.793 1489.97 162.449L1504.17 144.829C1505.03 143.763 1506.68 143.857 1507.42 145.014L1522.13 168.214C1522.25 168.4 1522.4 168.565 1522.57 168.703L1538.57 181.55C1538.65 181.615 1538.74 181.674 1538.83 181.725L1553.3 190.026C1554.28 190.584 1555.52 190.232 1556.05 189.246L1571.32 161.171C1571.41 160.999 1571.53 160.842 1571.67 160.704L1587.74 144.836C1587.81 144.765 1587.88 144.689 1587.94 144.608L1604.08 122.938C1604.18 122.803 1604.26 122.655 1604.33 122.499L1618.73 87.2442C1619.41 85.5732 1621.78 85.5899 1622.44 87.2705L1637 124.411" stroke="#FF0080" stroke-width="1.5"></path><line opacity="0.05" stroke="black" stroke-dasharray="8 8" stroke-linecap="round" x1="7.5" x2="340.5" y1="50.5" y2="50.5"></line><line opacity="0.1" stroke="black" stroke-dasharray="8 8" stroke-linecap="round" x1="7.5" x2="340.5" y1="80.5" y2="80.5"></line><line opacity="0.15" stroke="black" stroke-dasharray="8 8" stroke-linecap="round" x1="7.5" x2="340.5" y1="110.5" y2="110.5"></line><line opacity="0.1" stroke="black" stroke-dasharray="8 8" stroke-linecap="round" x1="7.5" x2="340.5" y1="140.5" y2="140.5"></line></g><g filter="url(#filter0_d_1389_9134)"><rect fill="#FAFAFA" height="19" rx="9.5" width="183" x="121" y="107"></rect><path d="M122 116.5C122 111.806 125.806 108 130.5 108H183V125H130.5C125.806 125 122 121.194 122 116.5Z" fill="white"></path><path d="M132.707 119.253L134.25 113.439H135.168L133.248 120H132.171L130.25 113.439H131.169L132.707 119.253ZM136.306 113.439H139.949V114.186H138.574V119.253H139.949V120H136.306V119.253H137.682V114.186H136.306V113.439ZM145.293 113.663V114.564C145.023 114.391 144.752 114.261 144.48 114.173C144.21 114.085 143.938 114.041 143.663 114.041C143.244 114.041 142.913 114.139 142.669 114.335C142.426 114.529 142.305 114.791 142.305 115.122C142.305 115.412 142.384 115.633 142.542 115.786C142.703 115.938 143.002 116.065 143.438 116.168L143.904 116.273C144.52 116.417 144.968 116.643 145.249 116.95C145.53 117.258 145.671 117.677 145.671 118.207C145.671 118.831 145.478 119.307 145.091 119.635C144.704 119.963 144.142 120.127 143.403 120.127C143.096 120.127 142.787 120.094 142.476 120.026C142.166 119.962 141.854 119.864 141.54 119.732V118.787C141.877 119.001 142.195 119.158 142.494 119.257C142.795 119.357 143.099 119.407 143.403 119.407C143.852 119.407 144.2 119.307 144.449 119.108C144.698 118.906 144.823 118.625 144.823 118.264C144.823 117.936 144.736 117.686 144.563 117.513C144.394 117.34 144.096 117.207 143.671 117.113L143.197 117.003C142.587 116.865 142.145 116.657 141.87 116.379C141.594 116.101 141.457 115.727 141.457 115.258C141.457 114.672 141.653 114.204 142.045 113.852C142.441 113.498 142.965 113.32 143.619 113.32C143.871 113.32 144.136 113.35 144.414 113.408C144.692 113.464 144.985 113.549 145.293 113.663ZM146.915 117.482V113.439H147.807V117.886C147.807 118.206 147.815 118.434 147.833 118.572C147.851 118.707 147.881 118.811 147.925 118.884C148.019 119.057 148.154 119.187 148.33 119.275C148.508 119.363 148.724 119.407 148.976 119.407C149.23 119.407 149.446 119.363 149.622 119.275C149.797 119.187 149.934 119.057 150.03 118.884C150.074 118.811 150.105 118.707 150.123 118.572C150.14 118.437 150.149 118.211 150.149 117.895V113.439H151.037V117.482C151.037 118.153 150.994 118.63 150.909 118.915C150.827 119.196 150.684 119.429 150.479 119.613C150.285 119.786 150.064 119.915 149.815 120C149.566 120.085 149.286 120.127 148.976 120.127C148.668 120.127 148.39 120.085 148.141 120C147.892 119.915 147.669 119.786 147.473 119.613C147.271 119.432 147.127 119.197 147.042 118.91C146.957 118.62 146.915 118.144 146.915 117.482ZM154.398 114.221L153.462 117.579H155.334L154.398 114.221ZM153.862 113.439H154.939L156.947 120H156.029L155.545 118.291H153.247L152.772 120H151.854L153.862 113.439ZM158.059 113.439H158.951V119.253H162.12V120H158.059V113.439ZM163.42 113.439H167.063V114.186H165.688V119.253H167.063V120H163.42V119.253H164.796V114.186H163.42V113.439ZM168.742 113.439H173V114.116L169.573 119.253H173.097V120H168.646V119.323L171.981 114.186H168.742V113.439ZM174.249 113.439H178.142V114.186H175.136V115.953H178.01V116.7H175.136V119.253H178.226V120H174.249V113.439Z" fill="#444444" opacity="0.5"></path><path d="M191.482 117.271C191.482 116.574 191.372 116.048 191.15 115.693C190.929 115.339 190.602 115.161 190.169 115.161C189.733 115.161 189.402 115.34 189.178 115.698C188.953 116.053 188.841 116.577 188.841 117.271C188.841 117.961 188.953 118.485 189.178 118.843C189.402 119.201 189.733 119.38 190.169 119.38C190.602 119.38 190.929 119.202 191.15 118.848C191.372 118.493 191.482 117.967 191.482 117.271ZM188.841 115.229C188.984 114.963 189.181 114.757 189.432 114.614C189.686 114.471 189.979 114.399 190.311 114.399C190.968 114.399 191.486 114.653 191.863 115.161C192.241 115.666 192.43 116.362 192.43 117.251C192.43 118.153 192.239 118.861 191.858 119.375C191.481 119.886 190.962 120.142 190.301 120.142C189.975 120.142 189.687 120.072 189.437 119.932C189.189 119.788 188.991 119.582 188.841 119.312V120H187.942V112.402H188.841V115.229ZM196.453 117.251H196.155C195.631 117.251 195.236 117.344 194.969 117.529C194.705 117.712 194.573 117.985 194.573 118.35C194.573 118.678 194.673 118.934 194.871 119.116C195.07 119.299 195.345 119.39 195.696 119.39C196.191 119.39 196.58 119.219 196.863 118.877C197.146 118.532 197.29 118.057 197.293 117.451V117.251H196.453ZM198.196 116.88V120H197.293V119.189C197.101 119.515 196.858 119.756 196.565 119.912C196.276 120.065 195.923 120.142 195.506 120.142C194.949 120.142 194.505 119.985 194.173 119.673C193.841 119.357 193.675 118.936 193.675 118.408C193.675 117.799 193.878 117.337 194.285 117.021C194.695 116.706 195.296 116.548 196.087 116.548H197.293V116.406C197.29 115.97 197.179 115.654 196.961 115.459C196.743 115.26 196.395 115.161 195.916 115.161C195.61 115.161 195.301 115.205 194.988 115.293C194.676 115.381 194.371 115.509 194.075 115.679V114.78C194.407 114.653 194.725 114.559 195.027 114.497C195.333 114.432 195.63 114.399 195.916 114.399C196.368 114.399 196.754 114.466 197.073 114.6C197.396 114.733 197.656 114.933 197.854 115.2C197.978 115.363 198.066 115.565 198.118 115.806C198.17 116.043 198.196 116.401 198.196 116.88ZM204.183 116.611V120H203.279V116.611C203.279 116.12 203.193 115.758 203.021 115.527C202.848 115.296 202.578 115.181 202.21 115.181C201.79 115.181 201.466 115.33 201.238 115.63C201.014 115.926 200.901 116.353 200.901 116.909V120H200.003V114.531H200.901V115.352C201.061 115.039 201.277 114.803 201.551 114.644C201.824 114.481 202.148 114.399 202.522 114.399C203.079 114.399 203.494 114.583 203.768 114.951C204.044 115.316 204.183 115.869 204.183 116.611ZM209.266 115.229V112.402H210.164V120H209.266V119.312C209.116 119.582 208.916 119.788 208.665 119.932C208.418 120.072 208.131 120.142 207.806 120.142C207.145 120.142 206.624 119.886 206.243 119.375C205.866 118.861 205.677 118.153 205.677 117.251C205.677 116.362 205.867 115.666 206.248 115.161C206.629 114.653 207.148 114.399 207.806 114.399C208.134 114.399 208.424 114.471 208.675 114.614C208.925 114.754 209.122 114.959 209.266 115.229ZM206.624 117.271C206.624 117.967 206.735 118.493 206.956 118.848C207.177 119.202 207.505 119.38 207.938 119.38C208.37 119.38 208.699 119.201 208.924 118.843C209.152 118.485 209.266 117.961 209.266 117.271C209.266 116.577 209.152 116.053 208.924 115.698C208.699 115.34 208.37 115.161 207.938 115.161C207.505 115.161 207.177 115.339 206.956 115.693C206.735 116.048 206.624 116.574 206.624 117.271ZM211.102 114.531H211.99L212.942 118.95L213.724 116.128H214.49L215.281 118.95L216.233 114.531H217.122L215.843 120H214.983L214.109 117.002L213.24 120H212.381L211.102 114.531ZM218.67 114.551H220.97V119.302H222.752V120H218.289V119.302H220.071V115.249H218.67V114.551ZM220.071 112.427H220.97V113.56H220.071V112.427ZM227.342 115.229V112.402H228.24V120H227.342V119.312C227.192 119.582 226.992 119.788 226.741 119.932C226.494 120.072 226.207 120.142 225.882 120.142C225.221 120.142 224.7 119.886 224.319 119.375C223.942 118.861 223.753 118.153 223.753 117.251C223.753 116.362 223.943 115.666 224.324 115.161C224.705 114.653 225.224 114.399 225.882 114.399C226.211 114.399 226.5 114.471 226.751 114.614C227.002 114.754 227.199 114.959 227.342 115.229ZM224.7 117.271C224.7 117.967 224.811 118.493 225.032 118.848C225.254 119.202 225.581 119.38 226.014 119.38C226.447 119.38 226.775 119.201 227 118.843C227.228 118.485 227.342 117.961 227.342 117.271C227.342 116.577 227.228 116.053 227 115.698C226.775 115.34 226.447 115.161 226.014 115.161C225.581 115.161 225.254 115.339 225.032 115.693C224.811 116.048 224.7 116.574 224.7 117.271ZM232.176 112.979V114.531H234.217V115.229H232.176V118.198C232.176 118.602 232.252 118.883 232.405 119.043C232.558 119.202 232.825 119.282 233.206 119.282H234.217V120H233.118C232.444 120 231.969 119.865 231.692 119.595C231.416 119.325 231.277 118.859 231.277 118.198V115.229H229.817V114.531H231.277V112.979H232.176ZM240.335 116.611V120H239.432V116.611C239.432 116.12 239.345 115.758 239.173 115.527C239 115.296 238.73 115.181 238.362 115.181C237.942 115.181 237.618 115.33 237.391 115.63C237.166 115.926 237.054 116.353 237.054 116.909V120H236.155V112.402H237.054V115.352C237.213 115.039 237.43 114.803 237.703 114.644C237.977 114.481 238.3 114.399 238.675 114.399C239.231 114.399 239.646 114.583 239.92 114.951C240.197 115.316 240.335 115.869 240.335 116.611ZM247.205 120.928V121.758H241.229V120.928H247.205ZM248.797 114.551H251.097V119.302H252.879V120H248.416V119.302H250.198V115.249H248.797V114.551ZM250.198 112.427H251.097V113.56H250.198V112.427ZM258.411 116.611V120H257.508V116.611C257.508 116.12 257.422 115.758 257.249 115.527C257.076 115.296 256.806 115.181 256.438 115.181C256.019 115.181 255.695 115.33 255.467 115.63C255.242 115.926 255.13 116.353 255.13 116.909V120H254.231V114.531H255.13V115.352C255.289 115.039 255.506 114.803 255.779 114.644C256.053 114.481 256.377 114.399 256.751 114.399C257.308 114.399 257.723 114.583 257.996 114.951C258.273 115.316 258.411 115.869 258.411 116.611ZM264.485 119.722C264.244 119.862 263.995 119.966 263.738 120.034C263.484 120.106 263.224 120.142 262.957 120.142C262.111 120.142 261.448 119.888 260.97 119.38C260.494 118.872 260.257 118.169 260.257 117.271C260.257 116.372 260.494 115.669 260.97 115.161C261.448 114.653 262.111 114.399 262.957 114.399C263.221 114.399 263.478 114.434 263.729 114.502C263.979 114.57 264.231 114.676 264.485 114.819V115.762C264.248 115.55 264.008 115.397 263.768 115.303C263.53 115.208 263.26 115.161 262.957 115.161C262.394 115.161 261.961 115.343 261.658 115.708C261.355 116.073 261.204 116.593 261.204 117.271C261.204 117.944 261.355 118.465 261.658 118.833C261.964 119.198 262.397 119.38 262.957 119.38C263.27 119.38 263.549 119.333 263.797 119.238C264.044 119.141 264.274 118.991 264.485 118.789V119.722ZM268.338 115.161C267.882 115.161 267.537 115.339 267.303 115.693C267.068 116.048 266.951 116.574 266.951 117.271C266.951 117.964 267.068 118.49 267.303 118.848C267.537 119.202 267.882 119.38 268.338 119.38C268.797 119.38 269.144 119.202 269.378 118.848C269.612 118.49 269.729 117.964 269.729 117.271C269.729 116.574 269.612 116.048 269.378 115.693C269.144 115.339 268.797 115.161 268.338 115.161ZM268.338 114.399C269.096 114.399 269.676 114.645 270.076 115.137C270.48 115.628 270.682 116.34 270.682 117.271C270.682 118.205 270.481 118.918 270.081 119.409C269.681 119.897 269.1 120.142 268.338 120.142C267.579 120.142 267 119.897 266.6 119.409C266.199 118.918 265.999 118.205 265.999 117.271C265.999 116.34 266.199 115.628 266.6 115.137C267 114.645 267.579 114.399 268.338 114.399ZM274.656 115.088C274.767 114.854 274.907 114.681 275.076 114.57C275.249 114.456 275.455 114.399 275.696 114.399C276.136 114.399 276.445 114.57 276.624 114.912C276.806 115.251 276.897 115.89 276.897 116.831V120H276.077V116.87C276.077 116.099 276.033 115.62 275.945 115.435C275.861 115.246 275.704 115.151 275.477 115.151C275.216 115.151 275.037 115.252 274.939 115.454C274.845 115.653 274.798 116.125 274.798 116.87V120H273.978V116.87C273.978 116.089 273.93 115.607 273.836 115.425C273.745 115.243 273.579 115.151 273.338 115.151C273.1 115.151 272.934 115.252 272.84 115.454C272.749 115.653 272.703 116.125 272.703 116.87V120H271.888V114.531H272.703V115C272.811 114.805 272.944 114.657 273.104 114.556C273.266 114.451 273.45 114.399 273.655 114.399C273.903 114.399 274.108 114.456 274.271 114.57C274.437 114.684 274.565 114.857 274.656 115.088ZM278.924 114.551H281.224V119.302H283.006V120H278.543V119.302H280.325V115.249H278.924V114.551ZM280.325 112.427H281.224V113.56H280.325V112.427ZM288.538 116.611V120H287.635V116.611C287.635 116.12 287.549 115.758 287.376 115.527C287.203 115.296 286.933 115.181 286.565 115.181C286.146 115.181 285.822 115.33 285.594 115.63C285.369 115.926 285.257 116.353 285.257 116.909V120H284.358V114.531H285.257V115.352C285.416 115.039 285.633 114.803 285.906 114.644C286.18 114.481 286.504 114.399 286.878 114.399C287.435 114.399 287.85 114.583 288.123 114.951C288.4 115.316 288.538 115.869 288.538 116.611ZM293.621 117.222C293.621 116.548 293.51 116.037 293.289 115.688C293.071 115.337 292.752 115.161 292.332 115.161C291.893 115.161 291.557 115.337 291.326 115.688C291.095 116.037 290.979 116.548 290.979 117.222C290.979 117.896 291.095 118.41 291.326 118.765C291.561 119.116 291.899 119.292 292.342 119.292C292.755 119.292 293.071 119.115 293.289 118.76C293.51 118.405 293.621 117.892 293.621 117.222ZM294.52 119.648C294.52 120.469 294.326 121.09 293.938 121.514C293.551 121.937 292.981 122.148 292.229 122.148C291.982 122.148 291.723 122.126 291.453 122.08C291.183 122.035 290.913 121.968 290.643 121.88V120.991C290.962 121.141 291.251 121.252 291.512 121.323C291.772 121.395 292.011 121.431 292.229 121.431C292.715 121.431 293.068 121.299 293.289 121.035C293.51 120.771 293.621 120.353 293.621 119.78V119.741V119.131C293.478 119.437 293.283 119.665 293.035 119.814C292.788 119.964 292.487 120.039 292.132 120.039C291.494 120.039 290.984 119.784 290.604 119.272C290.223 118.761 290.032 118.078 290.032 117.222C290.032 116.362 290.223 115.677 290.604 115.166C290.984 114.655 291.494 114.399 292.132 114.399C292.483 114.399 292.781 114.469 293.025 114.609C293.27 114.749 293.468 114.966 293.621 115.259V114.551H294.52V119.648Z" fill="black" opacity="0.5"></path><rect height="18" rx="9" stroke="black" stroke-opacity="0.1" width="182" x="121.5" y="107.5"></rect></g><g filter="url(#filter1_d_1389_9134)"><rect fill="#FAFAFA" height="19" rx="9.5" width="136" x="44" y="58"></rect><path d="M45 67.5C45 62.8056 48.8056 59 53.5 59H101V76H53.5C48.8056 76 45 72.1944 45 67.5Z" fill="white"></path><path d="M57.8516 70.4595C57.6143 70.6792 57.3462 70.8462 57.0474 70.9604C56.7515 71.0718 56.4307 71.1274 56.085 71.1274C55.2529 71.1274 54.6055 70.8301 54.1426 70.2354C53.6797 69.6377 53.4482 68.8013 53.4482 67.7261C53.4482 66.6538 53.6826 65.8188 54.1514 65.2212C54.6201 64.6206 55.272 64.3203 56.1069 64.3203C56.3823 64.3203 56.646 64.3599 56.8979 64.439C57.1499 64.5151 57.3931 64.6323 57.6274 64.7905V65.7002C57.3901 65.4746 57.147 65.3091 56.8979 65.2036C56.6489 65.0952 56.3853 65.041 56.1069 65.041C55.5298 65.041 55.0962 65.2651 54.8062 65.7134C54.519 66.1587 54.3755 66.8296 54.3755 67.7261C54.3755 68.6372 54.5146 69.3125 54.793 69.752C55.0742 70.1885 55.5049 70.4067 56.085 70.4067C56.2812 70.4067 56.4526 70.3848 56.5991 70.3408C56.7485 70.2939 56.8833 70.2222 57.0034 70.1255V68.3633H56.0498V67.6338H57.8516V70.4595ZM61.7627 67.9019C61.9912 67.9604 62.186 68.0718 62.3472 68.2358C62.5083 68.397 62.709 68.7207 62.9492 69.207L63.8413 71H62.8877L62.1055 69.3433C61.8799 68.8716 61.6763 68.5684 61.4946 68.4336C61.3159 68.2959 61.0815 68.2271 60.7915 68.2271H59.9434V71H59.0513V64.439H60.8794C61.6001 64.439 62.1523 64.6016 62.5361 64.9268C62.9199 65.252 63.1118 65.7222 63.1118 66.3374C63.1118 66.771 62.9932 67.1255 62.7559 67.4009C62.5215 67.6733 62.1904 67.8403 61.7627 67.9019ZM59.9434 65.1685V67.4976H60.9146C61.3394 67.4976 61.6558 67.4023 61.8638 67.2119C62.0718 67.0215 62.1758 66.73 62.1758 66.3374C62.1758 65.9595 62.0645 65.6709 61.8418 65.4717C61.6221 65.2695 61.3013 65.1685 60.8794 65.1685H59.9434ZM67.8228 67.7261C67.8228 66.7622 67.7231 66.0737 67.5239 65.6606C67.3276 65.2476 67.0039 65.041 66.5527 65.041C66.1045 65.041 65.7808 65.2476 65.5815 65.6606C65.3853 66.0737 65.2871 66.7622 65.2871 67.7261C65.2871 68.687 65.3853 69.374 65.5815 69.7871C65.7808 70.2002 66.1045 70.4067 66.5527 70.4067C67.0039 70.4067 67.3276 70.2017 67.5239 69.7915C67.7231 69.3784 67.8228 68.6899 67.8228 67.7261ZM68.75 67.7261C68.75 68.8687 68.5684 69.7212 68.2051 70.2837C67.8447 70.8462 67.2939 71.1274 66.5527 71.1274C65.8115 71.1274 65.2607 70.8477 64.9004 70.2881C64.54 69.7285 64.3599 68.8745 64.3599 67.7261C64.3599 66.5806 64.54 65.7266 64.9004 65.1641C65.2637 64.6016 65.8145 64.3203 66.5527 64.3203C67.2939 64.3203 67.8447 64.6016 68.2051 65.1641C68.5684 65.7266 68.75 66.5806 68.75 67.7261ZM69.9146 68.4819V64.439H70.8066V68.8862C70.8066 69.2056 70.8154 69.4341 70.833 69.5718C70.8506 69.7065 70.8813 69.8105 70.9253 69.8838C71.019 70.0566 71.1538 70.187 71.3296 70.2749C71.5083 70.3628 71.7236 70.4067 71.9756 70.4067C72.2305 70.4067 72.4458 70.3628 72.6216 70.2749C72.7974 70.187 72.9336 70.0566 73.0303 69.8838C73.0742 69.8105 73.105 69.7065 73.1226 69.5718C73.1401 69.437 73.1489 69.2114 73.1489 68.895V64.439H74.0366V68.4819C74.0366 69.1528 73.9941 69.6304 73.9092 69.9146C73.8271 70.1958 73.6836 70.4287 73.4785 70.6133C73.2852 70.7861 73.064 70.915 72.8149 71C72.5659 71.085 72.2861 71.1274 71.9756 71.1274C71.668 71.1274 71.3896 71.085 71.1406 71C70.8916 70.915 70.6689 70.7861 70.4727 70.6133C70.2705 70.4316 70.127 70.1973 70.042 69.9102C69.957 69.6201 69.9146 69.144 69.9146 68.4819ZM76.4448 65.1685V67.6338H77.4731C77.8833 67.6338 78.2026 67.5254 78.4312 67.3086C78.6626 67.0918 78.7783 66.7886 78.7783 66.3989C78.7783 66.0093 78.6641 65.7075 78.4355 65.4937C78.207 65.2769 77.8862 65.1685 77.4731 65.1685H76.4448ZM75.5571 64.439H77.4731C78.2056 64.439 78.7607 64.606 79.1387 64.9399C79.5166 65.271 79.7056 65.7573 79.7056 66.3989C79.7056 67.0464 79.5166 67.5356 79.1387 67.8667C78.7637 68.1978 78.2085 68.3633 77.4731 68.3633H76.4448V71H75.5571V64.439ZM87.1587 67.6909V70.2705H88.209C88.7246 70.2705 89.0923 70.1812 89.312 70.0024C89.5317 69.8208 89.6416 69.5234 89.6416 69.1104C89.6416 68.5654 89.5259 68.1934 89.2944 67.9941C89.063 67.792 88.7012 67.6909 88.209 67.6909H87.1587ZM87.1587 65.1685V66.9702H88.1914C88.6191 66.9702 88.9282 66.8882 89.1187 66.7241C89.312 66.5601 89.4087 66.3535 89.4087 66.1045C89.4087 65.7734 89.3135 65.5347 89.123 65.3882C88.9355 65.2417 88.625 65.1685 88.1914 65.1685H87.1587ZM86.2666 64.439H88.209C88.8799 64.439 89.397 64.584 89.7603 64.874C90.1235 65.1641 90.3052 65.5742 90.3052 66.1045C90.3052 66.3887 90.2085 66.6465 90.0151 66.8779C89.8247 67.1094 89.5376 67.2544 89.1538 67.313C89.5845 67.3774 89.9214 67.562 90.1646 67.8667C90.4106 68.1685 90.5337 68.6123 90.5337 69.1982C90.5337 69.793 90.3389 70.2427 89.9492 70.5474C89.5596 70.8491 88.9795 71 88.209 71H86.2666V64.439ZM91.1226 64.439H92.0674L93.667 67.335L95.2622 64.439H96.2158L94.1108 68.0557V71H93.2188V68.0557L91.1226 64.439Z" fill="#444444" opacity="0.5"></path><path d="M109.751 65.7217V66.6006C109.494 66.4508 109.235 66.3385 108.975 66.2637C108.714 66.1888 108.449 66.1514 108.179 66.1514C107.772 66.1514 107.467 66.2181 107.266 66.3516C107.067 66.4818 106.968 66.682 106.968 66.9521C106.968 67.1963 107.043 67.3786 107.192 67.499C107.342 67.6195 107.715 67.7367 108.311 67.8506L108.672 67.9189C109.118 68.0036 109.455 68.1729 109.683 68.4268C109.914 68.6807 110.029 69.0111 110.029 69.418C110.029 69.9583 109.837 70.3815 109.453 70.6875C109.069 70.9902 108.535 71.1416 107.852 71.1416C107.581 71.1416 107.298 71.1123 107.002 71.0537C106.706 70.9984 106.385 70.9137 106.04 70.7998V69.8721C106.375 70.0446 106.696 70.1748 107.002 70.2627C107.308 70.3473 107.598 70.3896 107.871 70.3896C108.268 70.3896 108.576 70.3099 108.794 70.1504C109.012 69.9876 109.121 69.7614 109.121 69.4717C109.121 69.055 108.722 68.7669 107.925 68.6074L107.886 68.5977L107.549 68.5293C107.031 68.4284 106.654 68.2591 106.416 68.0215C106.178 67.7806 106.06 67.4535 106.06 67.04C106.06 66.516 106.237 66.1123 106.592 65.8291C106.947 65.5426 107.453 65.3994 108.11 65.3994C108.403 65.3994 108.685 65.4271 108.955 65.4824C109.225 65.5345 109.491 65.6143 109.751 65.7217ZM114.033 66.1611C113.577 66.1611 113.232 66.3385 112.998 66.6934C112.764 67.0482 112.646 67.5739 112.646 68.2705C112.646 68.9639 112.764 69.4896 112.998 69.8477C113.232 70.2025 113.577 70.3799 114.033 70.3799C114.492 70.3799 114.839 70.2025 115.073 69.8477C115.308 69.4896 115.425 68.9639 115.425 68.2705C115.425 67.5739 115.308 67.0482 115.073 66.6934C114.839 66.3385 114.492 66.1611 114.033 66.1611ZM114.033 65.3994C114.792 65.3994 115.371 65.6452 115.771 66.1367C116.175 66.6283 116.377 67.3395 116.377 68.2705C116.377 69.2048 116.177 69.9176 115.776 70.4092C115.376 70.8975 114.795 71.1416 114.033 71.1416C113.275 71.1416 112.695 70.8975 112.295 70.4092C111.895 69.9176 111.694 69.2048 111.694 68.2705C111.694 67.3395 111.895 66.6283 112.295 66.1367C112.695 65.6452 113.275 65.3994 114.033 65.3994ZM118.003 68.9297V65.541H118.901V68.9297C118.901 69.4212 118.988 69.7826 119.16 70.0137C119.336 70.2448 119.606 70.3604 119.971 70.3604C120.394 70.3604 120.718 70.2122 120.942 69.916C121.167 69.6165 121.279 69.1885 121.279 68.6318V65.541H122.183V71H121.279V70.1797C121.12 70.4954 120.902 70.7347 120.625 70.8975C120.352 71.0602 120.031 71.1416 119.663 71.1416C119.103 71.1416 118.687 70.9593 118.413 70.5947C118.14 70.2269 118.003 69.6719 118.003 68.9297ZM128.716 66.6592C128.524 66.5094 128.328 66.4004 128.13 66.332C127.931 66.2637 127.713 66.2295 127.476 66.2295C126.916 66.2295 126.488 66.4053 126.191 66.7568C125.895 67.1084 125.747 67.6162 125.747 68.2803V71H124.844V65.5312H125.747V66.6006C125.897 66.2132 126.126 65.917 126.436 65.7119C126.748 65.5036 127.118 65.3994 127.544 65.3994C127.765 65.3994 127.972 65.4271 128.164 65.4824C128.356 65.5378 128.54 65.624 128.716 65.7412V66.6592ZM134.282 70.7217C134.041 70.8617 133.792 70.9658 133.535 71.0342C133.281 71.1058 133.021 71.1416 132.754 71.1416C131.908 71.1416 131.245 70.8877 130.767 70.3799C130.291 69.8721 130.054 69.1689 130.054 68.2705C130.054 67.3721 130.291 66.6689 130.767 66.1611C131.245 65.6533 131.908 65.3994 132.754 65.3994C133.018 65.3994 133.275 65.4336 133.525 65.502C133.776 65.5703 134.028 65.6761 134.282 65.8193V66.7617C134.045 66.5501 133.805 66.3971 133.564 66.3027C133.327 66.2083 133.057 66.1611 132.754 66.1611C132.191 66.1611 131.758 66.3434 131.455 66.708C131.152 67.0726 131.001 67.5934 131.001 68.2705C131.001 68.9443 131.152 69.4652 131.455 69.833C131.761 70.1976 132.194 70.3799 132.754 70.3799C133.066 70.3799 133.346 70.3327 133.594 70.2383C133.841 70.1406 134.071 69.9909 134.282 69.7891V70.7217ZM140.596 67.8164V68.2559H136.704V68.2852C136.678 69.0306 136.82 69.5661 137.129 69.8916C137.441 70.2171 137.881 70.3799 138.447 70.3799C138.734 70.3799 139.033 70.3343 139.346 70.2432C139.658 70.152 139.992 70.0137 140.347 69.8281V70.7217C140.005 70.8617 139.674 70.9658 139.355 71.0342C139.04 71.1058 138.734 71.1416 138.438 71.1416C137.588 71.1416 136.924 70.8877 136.445 70.3799C135.967 69.8688 135.728 69.1657 135.728 68.2705C135.728 67.3981 135.962 66.7015 136.431 66.1807C136.899 65.6598 137.524 65.3994 138.306 65.3994C139.002 65.3994 139.551 65.6354 139.951 66.1074C140.355 66.5794 140.57 67.1491 140.596 67.8164ZM139.697 67.5527C139.658 67.1751 139.52 66.8496 139.282 66.5762C139.048 66.2995 138.709 66.1611 138.267 66.1611C137.834 66.1611 137.477 66.3044 137.197 66.5908C136.917 66.8773 136.764 67.1995 136.738 67.5576L139.697 67.5527ZM147.129 71.9277V72.7578H141.152V71.9277H147.129ZM149.009 70.3115V73.0801H148.105V65.5312H149.009V66.2295C149.159 65.9593 149.357 65.7542 149.604 65.6143C149.855 65.471 150.143 65.3994 150.469 65.3994C151.13 65.3994 151.647 65.6549 152.021 66.166C152.399 66.6771 152.588 67.3851 152.588 68.29C152.588 69.1787 152.399 69.877 152.021 70.3848C151.644 70.8893 151.126 71.1416 150.469 71.1416C150.137 71.1416 149.845 71.0716 149.595 70.9316C149.347 70.7884 149.152 70.5817 149.009 70.3115ZM151.646 68.2705C151.646 67.5739 151.535 67.0482 151.313 66.6934C151.095 66.3385 150.77 66.1611 150.337 66.1611C149.901 66.1611 149.57 66.3402 149.346 66.6982C149.121 67.0531 149.009 67.5771 149.009 68.2705C149.009 68.9606 149.121 69.4847 149.346 69.8428C149.57 70.2008 149.901 70.3799 150.337 70.3799C150.77 70.3799 151.095 70.2025 151.313 69.8477C151.535 69.4928 151.646 68.9671 151.646 68.2705ZM156.631 68.251H156.333C155.809 68.251 155.413 68.3438 155.146 68.5293C154.883 68.7116 154.751 68.985 154.751 69.3496C154.751 69.6784 154.85 69.9339 155.049 70.1162C155.247 70.2985 155.522 70.3896 155.874 70.3896C156.369 70.3896 156.758 70.2188 157.041 69.877C157.324 69.5319 157.467 69.0566 157.471 68.4512V68.251H156.631ZM158.374 67.8799V71H157.471V70.1895C157.279 70.515 157.036 70.7559 156.743 70.9121C156.453 71.0651 156.1 71.1416 155.684 71.1416C155.127 71.1416 154.683 70.9854 154.351 70.6729C154.019 70.3571 153.853 69.9355 153.853 69.4082C153.853 68.7995 154.056 68.3372 154.463 68.0215C154.873 67.7057 155.474 67.5479 156.265 67.5479H157.471V67.4062C157.467 66.9701 157.357 66.6543 157.139 66.459C156.921 66.2604 156.572 66.1611 156.094 66.1611C155.788 66.1611 155.479 66.2051 155.166 66.293C154.854 66.3809 154.549 66.5094 154.253 66.6787V65.7803C154.585 65.6533 154.902 65.5589 155.205 65.4971C155.511 65.432 155.807 65.3994 156.094 65.3994C156.546 65.3994 156.932 65.4661 157.251 65.5996C157.573 65.7331 157.834 65.9333 158.032 66.2002C158.156 66.363 158.244 66.5648 158.296 66.8057C158.348 67.0433 158.374 67.4014 158.374 67.8799ZM162.227 63.9785V65.5312H164.268V66.2295H162.227V69.1982C162.227 69.6019 162.303 69.8835 162.456 70.043C162.609 70.2025 162.876 70.2822 163.257 70.2822H164.268V71H163.169C162.495 71 162.02 70.8649 161.743 70.5947C161.466 70.3245 161.328 69.859 161.328 69.1982V66.2295H159.868V65.5312H161.328V63.9785H162.227ZM170.386 67.6113V71H169.482V67.6113C169.482 67.1198 169.396 66.7585 169.224 66.5273C169.051 66.2962 168.781 66.1807 168.413 66.1807C167.993 66.1807 167.669 66.3304 167.441 66.6299C167.217 66.9261 167.104 67.3525 167.104 67.9092V71H166.206V63.4023H167.104V66.3516C167.264 66.0391 167.48 65.8031 167.754 65.6436C168.027 65.4808 168.351 65.3994 168.726 65.3994C169.282 65.3994 169.697 65.5833 169.971 65.9512C170.247 66.3158 170.386 66.8691 170.386 67.6113Z" fill="black" opacity="0.5"></path><rect height="18" rx="9" stroke="black" stroke-opacity="0.1" width="135" x="44.5" y="58.5"></rect></g><defs><filter color-interpolation-filters="sRGB" filterUnits="userSpaceOnUse" height="35" id="filter0_d_1389_9134" width="199" x="113" y="101"><feFlood flood-opacity="0" result="BackgroundImageFix"></feFlood><feColorMatrix in="SourceAlpha" result="hardAlpha" type="matrix" values="0 0 0 0 0 0 0 0 0 0 0 0 0 0 0 0 0 0 127 0"></feColorMatrix><feOffset dy="2"></feOffset><feGaussianBlur stdDeviation="4"></feGaussianBlur><feColorMatrix type="matrix" values="0 0 0 0 0 0 0 0 0 0 0 0 0 0 0 0 0 0 0.06 0"></feColorMatrix><feBlend in2="BackgroundImageFix" mode="normal" result="effect1_dropShadow_1389_9134"></feBlend><feBlend in="SourceGraphic" in2="effect1_dropShadow_1389_9134" mode="normal" result="shape"></feBlend></filter><filter color-interpolation-filters="sRGB" filterUnits="userSpaceOnUse" height="35" id="filter1_d_1389_9134" width="152" x="36" y="52"><feFlood flood-opacity="0" result="BackgroundImageFix"></feFlood><feColorMatrix in="SourceAlpha" result="hardAlpha" type="matrix" values="0 0 0 0 0 0 0 0 0 0 0 0 0 0 0 0 0 0 127 0"></feColorMatrix><feOffset dy="2"></feOffset><feGaussianBlur stdDeviation="4"></feGaussianBlur><feColorMatrix type="matrix" values="0 0 0 0 0 0 0 0 0 0 0 0 0 0 0 0 0 0 0.06 0"></feColorMatrix><feBlend in2="BackgroundImageFix" mode="normal" result="effect1_dropShadow_1389_9134"></feBlend><feBlend in="SourceGraphic" in2="effect1_dropShadow_1389_9134" mode="normal" result="shape"></feBlend></filter><radialGradient cx="0" cy="0" gradientTransform="translate(174 100) rotate(90) scale(96 154)" gradientUnits="userSpaceOnUse" id="paint0_radial_1389_9134" r="1"><stop offset="0.463542" stop-color="#D9D9D9"></stop><stop offset="1" stop-color="#D9D9D9" stop-opacity="0"></stop></radialGradient></defs></svg>