<svg aria-labelledby="pie-chart-visual-title" fill="none" height="218" role="img" viewBox="0 0 215 218" width="215" xmlns="http://www.w3.org/2000/svg" class="turbo-announcements_pieChartVisual__lVUR5"><title id="pie-chart-visual-title">The upper half of a pie chart extends from the bottom of this element. Most of the chart is dark grey, but it has a small slice that is a blue/pink gradient.</title><path d="M108 217.345C162.331 217.345 206.374 173.302 206.374 118.971C206.374 105.092 203.5 91.8842 198.314 79.9104C197.437 77.8842 195.039 77.0522 193.05 78.0103L113.736 116.209C111.08 117.488 108 115.553 108 112.605V24.5972C108 22.3881 106.203 20.5889 103.996 20.6772C51.522 22.7779 9.62598 65.9819 9.62598 118.971C9.62598 173.302 53.6696 217.345 108 217.345Z" fill="url(#paint0_linear_1766_6697)" fill-opacity="0.15"></path><path d="M205.874 118.971C205.874 173.026 162.054 216.845 108 216.845C53.9457 216.845 10.126 173.026 10.126 118.971C10.126 66.2514 51.8091 23.2668 104.016 21.1768C105.927 21.1003 107.5 22.6596 107.5 24.5972V112.605C107.5 115.921 110.965 118.098 113.953 116.659L193.267 78.4608C195.013 77.62 197.096 78.3559 197.855 80.1091C203.014 92.0214 205.874 105.162 205.874 118.971Z" stroke="url(#paint1_linear_1766_6697)" stroke-opacity="0.15"></path><path d="M118.295 99.7896V14.3022C118.295 12.0931 120.088 10.2938 122.296 10.3821C156.462 11.7487 186.144 30.5406 202.697 58.1133C203.878 60.0792 203.052 62.6052 200.981 63.5908L121.155 101.595C119.827 102.227 118.295 101.26 118.295 99.7896Z" fill="url(#paint2_linear_1766_6697)"></path><defs><linearGradient gradientUnits="userSpaceOnUse" id="paint0_linear_1766_6697" x1="203.392" x2="66.3484" y1="222.031" y2="-6.89022"><stop stop-opacity="0.42"></stop><stop offset="1" stop-opacity="0.15"></stop></linearGradient><linearGradient gradientUnits="userSpaceOnUse" id="paint1_linear_1766_6697" x1="-31.5539" x2="109.801" y1="176.166" y2="87.0896"><stop></stop><stop offset="1" stop-opacity="0"></stop></linearGradient><linearGradient gradientUnits="userSpaceOnUse" id="paint2_linear_1766_6697" x1="97.705" x2="185.311" y1="102.957" y2="40.1514"><stop stop-color="#1E90FF"></stop><stop offset="0.494792" stop-color="#A548DA"></stop><stop offset="1" stop-color="#FF1E56"></stop></linearGradient></defs></svg>