<svg aria-labelledby="splitbee-title" fill="none" height="24" role="img" viewBox="0 0 21 22" width="24"><title id="splitbee-title">The Splitbee logo, a cartoon of a small bee.</title><path d="M6.363 17.046v-6.364l-5.09 3.977 5.09 2.386z" fill="#fff"></path><path d="M6.363 10.682l-.391-.502A.636.636 0 017 10.682h-.637zm0 6.364H7a.636.636 0 01-.907.576l.27-.576zm-5.09-2.387l-.27.576a.637.637 0 01-.122-1.077l.391.501zM7 10.682v6.364H5.727v-6.364H7zm-.907 6.94l-5.09-2.387.54-1.152 5.09 2.386-.54 1.153zM.881 14.158l5.09-3.978.784 1.003-5.09 3.978-.784-1.003z" fill="#121212"></path><path d="M9.882 2.247c.483-.208 1.128-.128 1.83.34.696.465 1.372 1.271 1.824 2.323.452 1.052.572 2.097.43 2.922-.143.832-.529 1.355-1.012 1.563-.483.207-1.129.127-1.83-.342-.697-.464-1.373-1.27-1.825-2.322-.452-1.052-.571-2.097-.43-2.922.144-.831.53-1.355 1.013-1.562z" fill="#fff" stroke="#121212" stroke-width="1.27273"></path><path d="M4.442 14.372c.69 3.032 4.216 5.073 8.41 4.21 4.223-.87 6.776-4.191 6.09-7.2-.683-3.001-4.437-5.019-8.649-4.165-4.82 1.48-6.437 4.58-5.85 7.155z" fill="#FFC700"></path><path d="M4.442 14.372c.69 3.032 4.216 5.073 8.41 4.21 4.223-.87 6.776-4.191 6.09-7.2-.683-3.001-4.437-5.019-8.649-4.165-4.82 1.48-6.437 4.58-5.85 7.155z" fill="url(#paint0_linear_2061_7132)"></path><path d="M4.442 14.372c.69 3.032 4.216 5.073 8.41 4.21 4.223-.87 6.776-4.191 6.09-7.2-.683-3.001-4.437-5.019-8.649-4.165-4.82 1.48-6.437 4.58-5.85 7.155z" stroke="#121212" stroke-width="1.27273"></path><path d="M12.726 18.564c-3.094.346-5.32-1.963-5.727-5.018-.406-3.056 1.16-5.7 4.255-6.046" stroke="#121212" stroke-linecap="round" stroke-width="1.27273"></path><path d="M15.59 17.569c-3.817 1.386-5.188-2.312-5.618-4.2-.678-2.976.75-5.795 3.188-6.297" stroke="#121212" stroke-linecap="round" stroke-width="1.27273"></path><path d="M4.156 4.542c-.304.43-.36 1.077-.047 1.862.31.777.957 1.606 1.891 2.267.935.661 1.933.996 2.769 1.029.843.033 1.435-.236 1.74-.665.303-.43.358-1.077.046-1.861-.31-.778-.957-1.607-1.892-2.268-.934-.661-1.932-.995-2.768-1.028-.843-.033-1.435.235-1.74.664z" fill="#fff" stroke="#121212" stroke-width="1.27273"></path><circle fill="#121212" r="0.636364" stroke="#121212" stroke-width="0.636364" transform="scale(-1 1) rotate(12.217 -59.622 -63.439)"></circle><defs><linearGradient gradientUnits="userSpaceOnUse" id="paint0_linear_2061_7132" x1="10.1232" x2="13.74" y1="6.60272" y2="19.0304"><stop stop-color="#FFE073"></stop><stop offset="1" stop-color="#FFA800"></stop></linearGradient></defs></svg>